<svg class="chart-svg chart-auto-2026-week-1-buf-at-hou-win-probability" xmlns:xlink="http://www.w3.org/1999/xlink" viewBox="0 0 720 405" xmlns="http://www.w3.org/2000/svg" version="1.1">
 <defs>
  <style type="text/css">.chart-auto-2026-week-1-buf-at-hou-win-probability *{stroke-linejoin: round; stroke-linecap: butt}</style>
 </defs>
 <g id="auto-2026-week-1-buf-at-hou-win-probability-figure_1">
  <g id="auto-2026-week-1-buf-at-hou-win-probability-patch_1">
   <path d="M 0 405 
L 720 405 
L 720 0 
L 0 0 
z
" style="fill: #ffffff"/>
  </g>
  <g id="auto-2026-week-1-buf-at-hou-win-probability-axes_1">
   <g id="auto-2026-week-1-buf-at-hou-win-probability-patch_2">
    <path d="M 75.37399 382.998823 
L 705.596947 382.998823 
L 705.596947 7.558834 
L 75.37399 7.558834 
z
" style="fill: #ffffff"/>
   </g>
   <g id="auto-2026-week-1-buf-at-hou-win-probability-matplotlib.axis_1">
    <g id="auto-2026-week-1-buf-at-hou-win-probability-xtick_1">
     <g id="auto-2026-week-1-buf-at-hou-win-probability-line2d_1">
      <defs>
       <path id="auto-2026-week-1-buf-at-hou-win-probability-m16790f89bf" d="M 0 0 
L 0 3.5 
" style="stroke: #c3c9d0; stroke-width: 0.8"/>
      </defs>
      <g>
       <use xlink:href="#auto-2026-week-1-buf-at-hou-win-probability-m16790f89bf" x="75.37399" y="382.998823" style="fill: #c3c9d0; stroke: #c3c9d0; stroke-width: 0.8"/>
      </g>
     </g>
     <g id="auto-2026-week-1-buf-at-hou-win-probability-text_1">
      <text style="font-size: 12px; font-family: 'Barlow', system-ui, sans-serif; text-anchor: middle; fill: #5b6570" x="75.37399" y="399.116947" transform="rotate(-0 75.37399 399.116947)">Kickoff</text>
     </g>
    </g>
    <g id="auto-2026-week-1-buf-at-hou-win-probability-xtick_2">
     <g id="auto-2026-week-1-buf-at-hou-win-probability-line2d_2">
      <g>
       <use xlink:href="#auto-2026-week-1-buf-at-hou-win-probability-m16790f89bf" x="232.929729" y="382.998823" style="fill: #c3c9d0; stroke: #c3c9d0; stroke-width: 0.8"/>
      </g>
     </g>
     <g id="auto-2026-week-1-buf-at-hou-win-probability-text_2">
      <text style="font-size: 12px; font-family: 'Barlow', system-ui, sans-serif; text-anchor: middle; fill: #5b6570" x="232.929729" y="399.11601" transform="rotate(-0 232.929729 399.11601)">Q2</text>
     </g>
    </g>
    <g id="auto-2026-week-1-buf-at-hou-win-probability-xtick_3">
     <g id="auto-2026-week-1-buf-at-hou-win-probability-line2d_3">
      <g>
       <use xlink:href="#auto-2026-week-1-buf-at-hou-win-probability-m16790f89bf" x="390.485469" y="382.998823" style="fill: #c3c9d0; stroke: #c3c9d0; stroke-width: 0.8"/>
      </g>
     </g>
     <g id="auto-2026-week-1-buf-at-hou-win-probability-text_3">
      <text style="font-size: 12px; font-family: 'Barlow', system-ui, sans-serif; text-anchor: middle; fill: #5b6570" x="390.485469" y="399.11601" transform="rotate(-0 390.485469 399.11601)">Q3</text>
     </g>
    </g>
    <g id="auto-2026-week-1-buf-at-hou-win-probability-xtick_4">
     <g id="auto-2026-week-1-buf-at-hou-win-probability-line2d_4">
      <g>
       <use xlink:href="#auto-2026-week-1-buf-at-hou-win-probability-m16790f89bf" x="548.041208" y="382.998823" style="fill: #c3c9d0; stroke: #c3c9d0; stroke-width: 0.8"/>
      </g>
     </g>
     <g id="auto-2026-week-1-buf-at-hou-win-probability-text_4">
      <text style="font-size: 12px; font-family: 'Barlow', system-ui, sans-serif; text-anchor: middle; fill: #5b6570" x="548.041208" y="399.11601" transform="rotate(-0 548.041208 399.11601)">Q4</text>
     </g>
    </g>
    <g id="auto-2026-week-1-buf-at-hou-win-probability-xtick_5">
     <g id="auto-2026-week-1-buf-at-hou-win-probability-line2d_5">
      <g>
       <use xlink:href="#auto-2026-week-1-buf-at-hou-win-probability-m16790f89bf" x="705.596947" y="382.998823" style="fill: #c3c9d0; stroke: #c3c9d0; stroke-width: 0.8"/>
      </g>
     </g>
     <g id="auto-2026-week-1-buf-at-hou-win-probability-text_5">
      <text style="font-size: 12px; font-family: 'Barlow', system-ui, sans-serif; text-anchor: middle; fill: #5b6570" x="705.596947" y="399.116947" transform="rotate(-0 705.596947 399.116947)">End</text>
     </g>
    </g>
   </g>
   <g id="auto-2026-week-1-buf-at-hou-win-probability-matplotlib.axis_2">
    <g id="auto-2026-week-1-buf-at-hou-win-probability-ytick_1">
     <g id="auto-2026-week-1-buf-at-hou-win-probability-line2d_6">
      <path d="M 75.37399 382.998823 
L 705.596947 382.998823 
" clip-path="url(#auto-2026-week-1-buf-at-hou-win-probability-pcea1a436e2)" style="fill: none; stroke-dasharray: 1,2; stroke-dashoffset: 0; stroke: #d9dde2"/>
     </g>
     <g id="auto-2026-week-1-buf-at-hou-win-probability-line2d_7">
      <defs>
       <path id="auto-2026-week-1-buf-at-hou-win-probability-m69e76eb3d7" d="M 0 0 
L -3.5 0 
" style="stroke: #c3c9d0; stroke-width: 0.8"/>
      </defs>
      <g>
       <use xlink:href="#auto-2026-week-1-buf-at-hou-win-probability-m69e76eb3d7" x="75.37399" y="382.998823" style="fill: #c3c9d0; stroke: #c3c9d0; stroke-width: 0.8"/>
      </g>
     </g>
     <g id="auto-2026-week-1-buf-at-hou-win-probability-text_6">
      <text style="font-size: 12px; font-family: 'Barlow', system-ui, sans-serif; text-anchor: end; fill: #5b6570" x="68.37399" y="387.557416" transform="rotate(-0 68.37399 387.557416)">BUF 100%</text>
     </g>
    </g>
    <g id="auto-2026-week-1-buf-at-hou-win-probability-ytick_2">
     <g id="auto-2026-week-1-buf-at-hou-win-probability-line2d_8">
      <path d="M 75.37399 289.138825 
L 705.596947 289.138825 
" clip-path="url(#auto-2026-week-1-buf-at-hou-win-probability-pcea1a436e2)" style="fill: none; stroke-dasharray: 1,2; stroke-dashoffset: 0; stroke: #d9dde2"/>
     </g>
     <g id="auto-2026-week-1-buf-at-hou-win-probability-line2d_9">
      <g>
       <use xlink:href="#auto-2026-week-1-buf-at-hou-win-probability-m69e76eb3d7" x="75.37399" y="289.138825" style="fill: #c3c9d0; stroke: #c3c9d0; stroke-width: 0.8"/>
      </g>
     </g>
     <g id="auto-2026-week-1-buf-at-hou-win-probability-text_7">
      <text style="font-size: 12px; font-family: 'Barlow', system-ui, sans-serif; text-anchor: end; fill: #5b6570" x="68.37399" y="293.697419" transform="rotate(-0 68.37399 293.697419)">BUF 75%</text>
     </g>
    </g>
    <g id="auto-2026-week-1-buf-at-hou-win-probability-ytick_3">
     <g id="auto-2026-week-1-buf-at-hou-win-probability-line2d_10">
      <path d="M 75.37399 195.278828 
L 705.596947 195.278828 
" clip-path="url(#auto-2026-week-1-buf-at-hou-win-probability-pcea1a436e2)" style="fill: none; stroke-dasharray: 1,2; stroke-dashoffset: 0; stroke: #d9dde2"/>
     </g>
     <g id="auto-2026-week-1-buf-at-hou-win-probability-line2d_11">
      <g>
       <use xlink:href="#auto-2026-week-1-buf-at-hou-win-probability-m69e76eb3d7" x="75.37399" y="195.278828" style="fill: #c3c9d0; stroke: #c3c9d0; stroke-width: 0.8"/>
      </g>
     </g>
     <g id="auto-2026-week-1-buf-at-hou-win-probability-text_8">
      <text style="font-size: 12px; font-family: 'Barlow', system-ui, sans-serif; text-anchor: end; fill: #5b6570" x="68.37399" y="199.837422" transform="rotate(-0 68.37399 199.837422)">50%</text>
     </g>
    </g>
    <g id="auto-2026-week-1-buf-at-hou-win-probability-ytick_4">
     <g id="auto-2026-week-1-buf-at-hou-win-probability-line2d_12">
      <path d="M 75.37399 101.418831 
L 705.596947 101.418831 
" clip-path="url(#auto-2026-week-1-buf-at-hou-win-probability-pcea1a436e2)" style="fill: none; stroke-dasharray: 1,2; stroke-dashoffset: 0; stroke: #d9dde2"/>
     </g>
     <g id="auto-2026-week-1-buf-at-hou-win-probability-line2d_13">
      <g>
       <use xlink:href="#auto-2026-week-1-buf-at-hou-win-probability-m69e76eb3d7" x="75.37399" y="101.418831" style="fill: #c3c9d0; stroke: #c3c9d0; stroke-width: 0.8"/>
      </g>
     </g>
     <g id="auto-2026-week-1-buf-at-hou-win-probability-text_9">
      <text style="font-size: 12px; font-family: 'Barlow', system-ui, sans-serif; text-anchor: end; fill: #5b6570" x="68.37399" y="105.977425" transform="rotate(-0 68.37399 105.977425)">HOU 75%</text>
     </g>
    </g>
    <g id="auto-2026-week-1-buf-at-hou-win-probability-ytick_5">
     <g id="auto-2026-week-1-buf-at-hou-win-probability-line2d_14">
      <path d="M 75.37399 7.558834 
L 705.596947 7.558834 
" clip-path="url(#auto-2026-week-1-buf-at-hou-win-probability-pcea1a436e2)" style="fill: none; stroke-dasharray: 1,2; stroke-dashoffset: 0; stroke: #d9dde2"/>
     </g>
     <g id="auto-2026-week-1-buf-at-hou-win-probability-line2d_15">
      <g>
       <use xlink:href="#auto-2026-week-1-buf-at-hou-win-probability-m69e76eb3d7" x="75.37399" y="7.558834" style="fill: #c3c9d0; stroke: #c3c9d0; stroke-width: 0.8"/>
      </g>
     </g>
     <g id="auto-2026-week-1-buf-at-hou-win-probability-text_10">
      <text style="font-size: 12px; font-family: 'Barlow', system-ui, sans-serif; text-anchor: end; fill: #5b6570" x="68.37399" y="12.117427" transform="rotate(-0 68.37399 12.117427)">HOU 100%</text>
     </g>
    </g>
   </g>
   <g id="auto-2026-week-1-buf-at-hou-win-probability-line2d_16">
    <path d="M 75.37399 195.278828 
L 705.596947 195.278828 
" clip-path="url(#auto-2026-week-1-buf-at-hou-win-probability-pcea1a436e2)" style="fill: none; stroke: #c3c9d0"/>
   </g>
   <g id="auto-2026-week-1-buf-at-hou-win-probability-line2d_17">
    <path d="M 75.37399 170.202425 
L 75.37399 176.001172 
L 76.2493 176.001172 
L 76.2493 182.581469 
L 82.201405 182.581469 
L 82.201405 181.17244 
L 86.753016 181.17244 
L 86.753016 187.814288 
L 93.230307 187.814288 
L 93.230307 194.92021 
L 100.057723 194.92021 
L 100.057723 193.948906 
L 106.535014 193.948906 
L 106.535014 178.524064 
L 114.237739 178.524064 
L 114.237739 142.550094 
L 114.762925 142.550094 
L 114.762925 148.018285 
L 121.59034 148.018285 
L 121.59034 153.693292 
L 124.916517 153.693292 
L 124.916517 160.220229 
L 131.393808 160.220229 
L 131.393808 206.696626 
L 132.794304 206.696626 
L 132.794304 207.794445 
L 139.096533 207.794445 
L 139.096533 185.54448 
L 146.449135 185.54448 
L 146.449135 193.992375 
L 152.051116 193.992375 
L 152.051116 178.896511 
L 153.801736 178.896511 
L 153.801736 191.116123 
L 155.727417 191.116123 
L 155.727417 192.42519 
L 162.379771 192.42519 
L 162.379771 180.014302 
L 169.207186 180.014302 
L 169.207186 176.059847 
L 176.209663 176.059847 
L 176.209663 159.281429 
L 183.387202 159.281429 
L 183.387202 156.288353 
L 190.38968 156.288353 
L 190.38968 147.228947 
L 197.917343 147.228947 
L 197.917343 152.673774 
L 205.445006 152.673774 
L 205.445006 164.355499 
L 206.670439 164.355499 
L 206.670439 133.999876 
L 213.147731 133.999876 
L 213.147731 136.160312 
L 219.800084 136.160312 
L 219.800084 143.787998 
L 226.452438 143.787998 
L 226.452438 125.803751 
L 227.327748 125.803751 
L 227.327748 125.107722 
L 227.327748 129.657039 
L 228.553181 129.657039 
L 228.553181 146.020581 
L 234.330225 146.020581 
L 234.330225 126.671293 
L 235.030473 126.671293 
L 235.030473 154.928187 
L 242.208012 154.928187 
L 242.208012 164.28898 
L 248.335179 164.28898 
L 248.335179 171.800917 
L 254.462347 171.800917 
L 254.462347 194.699876 
L 256.388028 194.699876 
L 256.388028 195.790556 
L 256.388028 195.790556 
L 257.613462 195.790556 
L 257.613462 195.214268 
L 265.141125 195.214268 
L 265.141125 187.028116 
L 272.318664 187.028116 
L 272.318664 187.673765 
L 276.520151 187.673765 
L 276.520151 194.003843 
L 277.220398 194.003843 
L 277.220398 207.608137 
L 284.397938 207.608137 
L 284.397938 174.097232 
L 292.80091 174.097232 
L 292.80091 167.563917 
L 299.278202 167.563917 
L 299.278202 162.672586 
L 306.280679 162.672586 
L 306.280679 158.924187 
L 313.283156 158.924187 
L 313.283156 164.04402 
L 313.283156 158.924187 
L 314.158466 158.924187 
L 314.158466 151.452184 
L 321.686129 151.452184 
L 321.686129 163.314968 
L 329.388854 163.314968 
L 329.388854 169.424623 
L 337.441703 169.424623 
L 337.441703 151.698565 
L 339.192322 151.698565 
L 339.192322 127.268967 
L 340.067632 127.268967 
L 340.067632 126.568623 
L 340.067632 143.815423 
L 346.1948 143.815423 
L 346.1948 199.264187 
L 347.595295 199.264187 
L 347.595295 196.145012 
L 348.120481 196.145012 
L 348.120481 198.685709 
L 348.645667 198.685709 
L 348.645667 199.744765 
L 348.645667 199.744765 
L 350.046162 199.744765 
L 350.046162 196.272443 
L 353.197277 196.272443 
L 353.197277 192.513918 
L 358.099011 192.513918 
L 358.099011 197.639625 
L 364.926427 197.639625 
L 364.926427 209.729837 
L 365.626674 209.729837 
L 365.626674 204.758493 
L 367.727418 204.758493 
L 367.727418 227.403071 
L 369.478037 227.403071 
L 369.478037 243.246157 
L 373.154337 243.246157 
L 373.154337 291.974757 
L 374.904957 291.974757 
L 374.904957 294.988901 
L 375.780266 294.988901 
L 375.780266 285.129309 
L 379.456567 285.129309 
L 379.456567 277.883536 
L 380.331877 277.883536 
L 380.331877 268.236707 
L 383.482991 268.236707 
L 383.482991 253.307773 
L 385.058549 253.307773 
L 385.058549 222.040444 
L 385.933859 222.040444 
L 385.933859 216.157516 
L 387.334354 216.157516 
L 387.334354 211.257659 
L 388.734849 211.257659 
L 388.734849 214.277834 
L 390.485469 214.277834 
L 390.485469 214.277834 
L 390.485469 206.673801 
L 391.360778 206.673801 
L 391.360778 207.909926 
L 397.663008 207.909926 
L 397.663008 222.151086 
L 404.665485 222.151086 
L 404.665485 244.217753 
L 407.291414 244.217753 
L 407.291414 256.999242 
L 408.166724 256.999242 
L 408.166724 222.248933 
L 409.742281 222.248933 
L 409.742281 217.385932 
L 416.219573 217.385932 
L 416.219573 215.004514 
L 421.821555 215.004514 
L 421.821555 238.072036 
L 426.373165 238.072036 
L 426.373165 233.767365 
L 433.550704 233.767365 
L 433.550704 217.791108 
L 437.577129 217.791108 
L 437.577129 207.686762 
L 439.852934 207.686762 
L 439.852934 202.618578 
L 446.330225 202.618578 
L 446.330225 227.737767 
L 448.956154 227.737767 
L 448.956154 242.321589 
L 455.958632 242.321589 
L 455.958632 254.293869 
L 456.658879 254.293869 
L 456.658879 267.543181 
L 462.260861 267.543181 
L 462.260861 261.531082 
L 464.361604 261.531082 
L 464.361604 261.390795 
L 470.663834 261.390795 
L 470.663834 272.755737 
L 471.889267 272.755737 
L 471.889267 285.634548 
L 479.066807 285.634548 
L 479.066807 289.392681 
L 485.71916 289.392681 
L 485.71916 275.816841 
L 493.596947 275.816841 
L 493.596947 269.099065 
L 501.299672 269.099065 
L 501.299672 276.57711 
L 501.824858 276.57711 
L 501.824858 274.457491 
L 502.700168 274.457491 
L 502.700168 283.57658 
L 503.750539 283.57658 
L 503.750539 273.806147 
L 510.753016 273.806147 
L 510.753016 287.58707 
L 518.28068 287.58707 
L 518.28068 268.848935 
L 525.633281 268.848935 
L 525.633281 263.470659 
L 531.410325 263.470659 
L 531.410325 244.577937 
L 535.436749 244.577937 
L 535.436749 252.697246 
L 536.312059 252.697246 
L 536.312059 231.022551 
L 539.813297 231.022551 
L 539.813297 259.671294 
L 547.34096 259.671294 
L 547.34096 229.070163 
L 548.041208 229.070163 
L 548.041208 229.070163 
L 548.041208 215.445886 
L 555.568871 215.445886 
L 555.568871 221.929555 
L 562.221225 221.929555 
L 562.221225 179.81292 
L 563.096534 179.81292 
L 563.096534 179.366191 
L 563.096534 187.334549 
L 563.971844 187.334549 
L 563.971844 177.505676 
L 565.022216 177.505676 
L 565.022216 173.510649 
L 571.849631 173.510649 
L 571.849631 237.232705 
L 579.90248 237.232705 
L 579.90248 232.372166 
L 587.430143 232.372166 
L 587.430143 227.164992 
L 593.382249 227.164992 
L 593.382249 199.664977 
L 594.257558 199.664977 
L 594.257558 211.43892 
L 595.132868 211.43892 
L 595.132868 203.128851 
L 596.008178 203.128851 
L 596.008178 212.958373 
L 596.708425 212.958373 
L 596.708425 227.174469 
L 598.108921 227.174469 
L 598.108921 225.781877 
L 606.16177 225.781877 
L 606.16177 183.274928 
L 612.989185 183.274928 
L 612.989185 199.265754 
L 619.466477 199.265754 
L 619.466477 193.642462 
L 626.819078 193.642462 
L 626.819078 216.231744 
L 634.171679 216.231744 
L 634.171679 181.779801 
L 634.871927 181.779801 
L 634.871927 171.810718 
L 635.922298 171.810718 
L 635.922298 155.361447 
L 643.274899 155.361447 
L 643.274899 139.296159 
L 644.325271 139.296159 
L 644.325271 124.093664 
L 645.200581 124.093664 
L 645.200581 104.768432 
L 646.250952 104.768432 
L 646.250952 110.379238 
L 653.603554 110.379238 
L 653.603554 122.480079 
L 661.831464 122.480079 
L 661.831464 139.32158 
L 669.884313 139.32158 
L 669.884313 143.965859 
L 671.809995 143.965859 
L 671.809995 167.039736 
L 678.63741 167.039736 
L 678.63741 168.203211 
L 683.539144 168.203211 
L 683.539144 175.588902 
L 684.589516 175.588902 
L 684.589516 237.558528 
L 685.814949 237.558528 
L 685.814949 225.517638 
L 686.690259 225.517638 
L 686.690259 196.684724 
L 686.690259 225.517638 
L 687.915692 225.517638 
L 687.915692 318.498506 
L 688.791002 318.498506 
L 688.791002 290.509017 
L 689.666312 290.509017 
L 689.666312 280.270985 
L 693.16755 280.270985 
L 693.16755 268.897104 
L 696.843851 268.897104 
L 696.843851 282.526785 
L 697.894222 282.526785 
L 697.894222 263.481624 
L 698.769532 263.481624 
L 698.769532 287.827667 
L 699.46978 287.827667 
L 699.46978 245.073811 
L 700.34509 245.073811 
L 700.34509 176.704265 
L 700.34509 245.073811 
L 701.220399 245.073811 
L 701.220399 256.499251 
L 702.095709 256.499251 
L 702.095709 261.360182 
L 702.095709 256.499251 
L 702.795957 256.499251 
L 702.795957 373.812108 
L 705.596947 373.812108 
L 705.596947 382.998823 
L 705.596947 382.998823 
" clip-path="url(#auto-2026-week-1-buf-at-hou-win-probability-pcea1a436e2)" style="fill: none; stroke: #1f2e3d; stroke-width: 2"/>
   </g>
   <g id="auto-2026-week-1-buf-at-hou-win-probability-patch_3">
    <path d="M 75.37399 382.998823 
L 75.37399 7.558834 
" style="fill: none; stroke: #c3c9d0; stroke-linejoin: miter; stroke-linecap: square"/>
   </g>
   <g id="auto-2026-week-1-buf-at-hou-win-probability-patch_4">
    <path d="M 75.37399 382.998823 
L 705.596947 382.998823 
" style="fill: none; stroke: #c3c9d0; stroke-linejoin: miter; stroke-linecap: square"/>
   </g>
   <g id="auto-2026-week-1-buf-at-hou-win-probability-logo-HOU-1">
    <image xlink:href="logo:HOU" id="auto-2026-week-1-buf-at-hou-win-probability-image8af574364f" x="79" y="30" width="30" height="30"/>
   </g>
   <g id="auto-2026-week-1-buf-at-hou-win-probability-logo-BUF-2">
    <image xlink:href="logo:BUF" id="auto-2026-week-1-buf-at-hou-win-probability-imagef95b3a66f4" x="79" y="330" width="30" height="30"/>
   </g>
  </g>
 </g>
 <defs>
  <clipPath id="auto-2026-week-1-buf-at-hou-win-probability-pcea1a436e2">
   <rect x="75.37399" y="7.558834" width="630.222957" height="375.439989"/>
  </clipPath>
 </defs>
</svg>
