<svg class="chart-svg chart-auto-2026-week-2-ind-at-kc-win-probability" xmlns:xlink="http://www.w3.org/1999/xlink" viewBox="0 0 720 405" xmlns="http://www.w3.org/2000/svg" version="1.1">
 <defs>
  <style type="text/css">.chart-auto-2026-week-2-ind-at-kc-win-probability *{stroke-linejoin: round; stroke-linecap: butt}</style>
 </defs>
 <g id="auto-2026-week-2-ind-at-kc-win-probability-figure_1">
  <g id="auto-2026-week-2-ind-at-kc-win-probability-patch_1">
   <path d="M 0 405 
L 720 405 
L 720 0 
L 0 0 
z
" style="fill: #ffffff"/>
  </g>
  <g id="auto-2026-week-2-ind-at-kc-win-probability-axes_1">
   <g id="auto-2026-week-2-ind-at-kc-win-probability-patch_2">
    <path d="M 69.878365 382.998823 
L 695.401635 382.998823 
L 695.401635 7.558834 
L 69.878365 7.558834 
z
" style="fill: #ffffff"/>
   </g>
   <g id="auto-2026-week-2-ind-at-kc-win-probability-matplotlib.axis_1">
    <g id="auto-2026-week-2-ind-at-kc-win-probability-xtick_1">
     <g id="auto-2026-week-2-ind-at-kc-win-probability-line2d_1">
      <defs>
       <path id="auto-2026-week-2-ind-at-kc-win-probability-mc9bac9fdad" d="M 0 0 
L 0 3.5 
" style="stroke: #c3c9d0; stroke-width: 0.8"/>
      </defs>
      <g>
       <use xlink:href="#auto-2026-week-2-ind-at-kc-win-probability-mc9bac9fdad" x="69.878365" y="382.998823" style="fill: #c3c9d0; stroke: #c3c9d0; stroke-width: 0.8"/>
      </g>
     </g>
     <g id="auto-2026-week-2-ind-at-kc-win-probability-text_1">
      <text style="font-size: 12px; font-family: 'Barlow', system-ui, sans-serif; text-anchor: middle; fill: #5b6570" x="69.878365" y="399.116947" transform="rotate(-0 69.878365 399.116947)">Kickoff</text>
     </g>
    </g>
    <g id="auto-2026-week-2-ind-at-kc-win-probability-xtick_2">
     <g id="auto-2026-week-2-ind-at-kc-win-probability-line2d_2">
      <g>
       <use xlink:href="#auto-2026-week-2-ind-at-kc-win-probability-mc9bac9fdad" x="203.919066" y="382.998823" style="fill: #c3c9d0; stroke: #c3c9d0; stroke-width: 0.8"/>
      </g>
     </g>
     <g id="auto-2026-week-2-ind-at-kc-win-probability-text_2">
      <text style="font-size: 12px; font-family: 'Barlow', system-ui, sans-serif; text-anchor: middle; fill: #5b6570" x="203.919066" y="399.11601" transform="rotate(-0 203.919066 399.11601)">Q2</text>
     </g>
    </g>
    <g id="auto-2026-week-2-ind-at-kc-win-probability-xtick_3">
     <g id="auto-2026-week-2-ind-at-kc-win-probability-line2d_3">
      <g>
       <use xlink:href="#auto-2026-week-2-ind-at-kc-win-probability-mc9bac9fdad" x="337.959766" y="382.998823" style="fill: #c3c9d0; stroke: #c3c9d0; stroke-width: 0.8"/>
      </g>
     </g>
     <g id="auto-2026-week-2-ind-at-kc-win-probability-text_3">
      <text style="font-size: 12px; font-family: 'Barlow', system-ui, sans-serif; text-anchor: middle; fill: #5b6570" x="337.959766" y="399.11601" transform="rotate(-0 337.959766 399.11601)">Q3</text>
     </g>
    </g>
    <g id="auto-2026-week-2-ind-at-kc-win-probability-xtick_4">
     <g id="auto-2026-week-2-ind-at-kc-win-probability-line2d_4">
      <g>
       <use xlink:href="#auto-2026-week-2-ind-at-kc-win-probability-mc9bac9fdad" x="472.000467" y="382.998823" style="fill: #c3c9d0; stroke: #c3c9d0; stroke-width: 0.8"/>
      </g>
     </g>
     <g id="auto-2026-week-2-ind-at-kc-win-probability-text_4">
      <text style="font-size: 12px; font-family: 'Barlow', system-ui, sans-serif; text-anchor: middle; fill: #5b6570" x="472.000467" y="399.11601" transform="rotate(-0 472.000467 399.11601)">Q4</text>
     </g>
    </g>
    <g id="auto-2026-week-2-ind-at-kc-win-probability-xtick_5">
     <g id="auto-2026-week-2-ind-at-kc-win-probability-line2d_5">
      <g>
       <use xlink:href="#auto-2026-week-2-ind-at-kc-win-probability-mc9bac9fdad" x="606.041168" y="382.998823" style="fill: #c3c9d0; stroke: #c3c9d0; stroke-width: 0.8"/>
      </g>
     </g>
     <g id="auto-2026-week-2-ind-at-kc-win-probability-text_5">
      <text style="font-size: 12px; font-family: 'Barlow', system-ui, sans-serif; text-anchor: middle; fill: #5b6570" x="606.041168" y="399.116947" transform="rotate(-0 606.041168 399.116947)">End</text>
     </g>
    </g>
    <g id="auto-2026-week-2-ind-at-kc-win-probability-xtick_6">
     <g id="auto-2026-week-2-ind-at-kc-win-probability-line2d_6">
      <g>
       <use xlink:href="#auto-2026-week-2-ind-at-kc-win-probability-mc9bac9fdad" x="695.401635" y="382.998823" style="fill: #c3c9d0; stroke: #c3c9d0; stroke-width: 0.8"/>
      </g>
     </g>
     <g id="auto-2026-week-2-ind-at-kc-win-probability-text_6">
      <text style="font-size: 12px; font-family: 'Barlow', system-ui, sans-serif; text-anchor: middle; fill: #5b6570" x="695.401635" y="399.116947" transform="rotate(-0 695.401635 399.116947)">OT end</text>
     </g>
    </g>
   </g>
   <g id="auto-2026-week-2-ind-at-kc-win-probability-matplotlib.axis_2">
    <g id="auto-2026-week-2-ind-at-kc-win-probability-ytick_1">
     <g id="auto-2026-week-2-ind-at-kc-win-probability-line2d_7">
      <path d="M 69.878365 382.998823 
L 695.401635 382.998823 
" clip-path="url(#auto-2026-week-2-ind-at-kc-win-probability-p5e0850084e)" style="fill: none; stroke-dasharray: 1,2; stroke-dashoffset: 0; stroke: #d9dde2"/>
     </g>
     <g id="auto-2026-week-2-ind-at-kc-win-probability-line2d_8">
      <defs>
       <path id="auto-2026-week-2-ind-at-kc-win-probability-m18965aa566" d="M 0 0 
L -3.5 0 
" style="stroke: #c3c9d0; stroke-width: 0.8"/>
      </defs>
      <g>
       <use xlink:href="#auto-2026-week-2-ind-at-kc-win-probability-m18965aa566" x="69.878365" y="382.998823" style="fill: #c3c9d0; stroke: #c3c9d0; stroke-width: 0.8"/>
      </g>
     </g>
     <g id="auto-2026-week-2-ind-at-kc-win-probability-text_7">
      <text style="font-size: 12px; font-family: 'Barlow', system-ui, sans-serif; text-anchor: end; fill: #5b6570" x="62.878365" y="387.557416" transform="rotate(-0 62.878365 387.557416)">IND 100%</text>
     </g>
    </g>
    <g id="auto-2026-week-2-ind-at-kc-win-probability-ytick_2">
     <g id="auto-2026-week-2-ind-at-kc-win-probability-line2d_9">
      <path d="M 69.878365 289.138825 
L 695.401635 289.138825 
" clip-path="url(#auto-2026-week-2-ind-at-kc-win-probability-p5e0850084e)" style="fill: none; stroke-dasharray: 1,2; stroke-dashoffset: 0; stroke: #d9dde2"/>
     </g>
     <g id="auto-2026-week-2-ind-at-kc-win-probability-line2d_10">
      <g>
       <use xlink:href="#auto-2026-week-2-ind-at-kc-win-probability-m18965aa566" x="69.878365" y="289.138825" style="fill: #c3c9d0; stroke: #c3c9d0; stroke-width: 0.8"/>
      </g>
     </g>
     <g id="auto-2026-week-2-ind-at-kc-win-probability-text_8">
      <text style="font-size: 12px; font-family: 'Barlow', system-ui, sans-serif; text-anchor: end; fill: #5b6570" x="62.878365" y="293.697419" transform="rotate(-0 62.878365 293.697419)">IND 75%</text>
     </g>
    </g>
    <g id="auto-2026-week-2-ind-at-kc-win-probability-ytick_3">
     <g id="auto-2026-week-2-ind-at-kc-win-probability-line2d_11">
      <path d="M 69.878365 195.278828 
L 695.401635 195.278828 
" clip-path="url(#auto-2026-week-2-ind-at-kc-win-probability-p5e0850084e)" style="fill: none; stroke-dasharray: 1,2; stroke-dashoffset: 0; stroke: #d9dde2"/>
     </g>
     <g id="auto-2026-week-2-ind-at-kc-win-probability-line2d_12">
      <g>
       <use xlink:href="#auto-2026-week-2-ind-at-kc-win-probability-m18965aa566" x="69.878365" y="195.278828" style="fill: #c3c9d0; stroke: #c3c9d0; stroke-width: 0.8"/>
      </g>
     </g>
     <g id="auto-2026-week-2-ind-at-kc-win-probability-text_9">
      <text style="font-size: 12px; font-family: 'Barlow', system-ui, sans-serif; text-anchor: end; fill: #5b6570" x="62.878365" y="199.837422" transform="rotate(-0 62.878365 199.837422)">50%</text>
     </g>
    </g>
    <g id="auto-2026-week-2-ind-at-kc-win-probability-ytick_4">
     <g id="auto-2026-week-2-ind-at-kc-win-probability-line2d_13">
      <path d="M 69.878365 101.418831 
L 695.401635 101.418831 
" clip-path="url(#auto-2026-week-2-ind-at-kc-win-probability-p5e0850084e)" style="fill: none; stroke-dasharray: 1,2; stroke-dashoffset: 0; stroke: #d9dde2"/>
     </g>
     <g id="auto-2026-week-2-ind-at-kc-win-probability-line2d_14">
      <g>
       <use xlink:href="#auto-2026-week-2-ind-at-kc-win-probability-m18965aa566" x="69.878365" y="101.418831" style="fill: #c3c9d0; stroke: #c3c9d0; stroke-width: 0.8"/>
      </g>
     </g>
     <g id="auto-2026-week-2-ind-at-kc-win-probability-text_10">
      <text style="font-size: 12px; font-family: 'Barlow', system-ui, sans-serif; text-anchor: end; fill: #5b6570" x="62.878365" y="105.977425" transform="rotate(-0 62.878365 105.977425)">KC 75%</text>
     </g>
    </g>
    <g id="auto-2026-week-2-ind-at-kc-win-probability-ytick_5">
     <g id="auto-2026-week-2-ind-at-kc-win-probability-line2d_15">
      <path d="M 69.878365 7.558834 
L 695.401635 7.558834 
" clip-path="url(#auto-2026-week-2-ind-at-kc-win-probability-p5e0850084e)" style="fill: none; stroke-dasharray: 1,2; stroke-dashoffset: 0; stroke: #d9dde2"/>
     </g>
     <g id="auto-2026-week-2-ind-at-kc-win-probability-line2d_16">
      <g>
       <use xlink:href="#auto-2026-week-2-ind-at-kc-win-probability-m18965aa566" x="69.878365" y="7.558834" style="fill: #c3c9d0; stroke: #c3c9d0; stroke-width: 0.8"/>
      </g>
     </g>
     <g id="auto-2026-week-2-ind-at-kc-win-probability-text_11">
      <text style="font-size: 12px; font-family: 'Barlow', system-ui, sans-serif; text-anchor: end; fill: #5b6570" x="62.878365" y="12.117427" transform="rotate(-0 62.878365 12.117427)">KC 100%</text>
     </g>
    </g>
   </g>
   <g id="auto-2026-week-2-ind-at-kc-win-probability-line2d_17">
    <path d="M 69.878365 195.278828 
L 695.401635 195.278828 
" clip-path="url(#auto-2026-week-2-ind-at-kc-win-probability-p5e0850084e)" style="fill: none; stroke: #c3c9d0"/>
   </g>
   <g id="auto-2026-week-2-ind-at-kc-win-probability-line2d_18">
    <path d="M 69.878365 170.202425 
L 69.878365 176.001172 
L 69.878365 173.492355 
L 75.388927 173.492355 
L 75.388927 171.989127 
L 81.197358 171.989127 
L 81.197358 181.17244 
L 86.856854 181.17244 
L 86.856854 187.814288 
L 92.367416 187.814288 
L 92.367416 207.141657 
L 98.026912 207.141657 
L 98.026912 218.078732 
L 104.431079 218.078732 
L 104.431079 209.681444 
L 106.516157 209.681444 
L 106.516157 204.3923 
L 112.324587 204.3923 
L 112.324587 211.280798 
L 118.430885 211.280798 
L 118.430885 238.859807 
L 122.303172 238.859807 
L 122.303172 235.897032 
L 128.260537 235.897032 
L 128.260537 240.30199 
L 128.707339 240.30199 
L 128.707339 240.974245 
L 128.707339 230.358283 
L 129.45201 230.358283 
L 129.45201 219.947035 
L 134.962572 219.947035 
L 134.962572 207.203499 
L 141.217805 207.203499 
L 141.217805 212.463026 
L 147.026235 212.463026 
L 147.026235 221.203065 
L 147.770906 221.203065 
L 147.770906 231.916718 
L 148.366642 231.916718 
L 148.366642 224.37173 
L 148.962378 224.37173 
L 148.962378 214.620329 
L 149.855983 214.620329 
L 149.855983 213.660896 
L 155.515479 213.660896 
L 155.515479 155.506825 
L 156.558018 155.506825 
L 156.558018 159.280713 
L 162.217514 159.280713 
L 162.217514 137.398265 
L 163.111119 137.398265 
L 163.111119 136.218338 
L 163.111119 143.749575 
L 164.153658 143.749575 
L 164.153658 141.855359 
L 169.813154 141.855359 
L 169.813154 140.609376 
L 175.323716 140.609376 
L 175.323716 127.429727 
L 182.025751 127.429727 
L 182.025751 156.889974 
L 182.025751 127.429727 
L 188.280984 127.429727 
L 188.280984 149.924071 
L 189.323523 149.924071 
L 189.323523 172.373491 
L 195.72769 172.373491 
L 195.72769 182.691255 
L 201.387186 182.691255 
L 201.387186 166.175353 
L 203.919066 166.175353 
L 203.919066 166.175353 
L 203.919066 158.512029 
L 204.365868 158.512029 
L 204.365868 143.080172 
L 205.110539 143.080172 
L 205.110539 157.991182 
L 205.706275 157.991182 
L 205.706275 154.667651 
L 206.450946 154.667651 
L 206.450946 131.077224 
L 211.812574 131.077224 
L 211.812574 135.391561 
L 217.025268 135.391561 
L 217.025268 131.938238 
L 222.982632 131.938238 
L 222.982632 148.577241 
L 223.727303 148.577241 
L 223.727303 178.781041 
L 224.471973 178.781041 
L 224.471973 171.975465 
L 230.727206 171.975465 
L 230.727206 178.893759 
L 236.982439 178.893759 
L 236.982439 214.907371 
L 238.024977 214.907371 
L 238.024977 204.221422 
L 243.982342 204.221422 
L 243.982342 196.320209 
L 244.727012 196.320209 
L 244.727012 166.547006 
L 250.08864 166.547006 
L 250.08864 195.8734 
L 250.982245 195.8734 
L 250.982245 192.400462 
L 251.726916 192.400462 
L 251.726916 186.55442 
L 258.280017 186.55442 
L 258.280017 206.594706 
L 262.74804 206.594706 
L 262.74804 184.749547 
L 268.55647 184.749547 
L 268.55647 176.821168 
L 273.918098 176.821168 
L 273.918098 165.977968 
L 279.726529 165.977968 
L 279.726529 159.781285 
L 285.683893 159.781285 
L 285.683893 152.356522 
L 291.939126 152.356522 
L 291.939126 154.368122 
L 297.89649 154.368122 
L 297.89649 150.071105 
L 302.513448 150.071105 
L 302.513448 155.088626 
L 303.704921 155.088626 
L 303.704921 143.719388 
L 309.811219 143.719388 
L 309.811219 138.435457 
L 315.917518 138.435457 
L 315.917518 124.521034 
L 316.36432 124.521034 
L 316.36432 123.838913 
L 316.36432 124.518543 
L 317.108991 124.518543 
L 317.108991 133.619473 
L 320.087673 133.619473 
L 320.087673 129.920652 
L 325.449301 129.920652 
L 325.449301 154.309828 
L 326.193972 154.309828 
L 326.193972 159.100033 
L 327.087576 159.100033 
L 327.087576 151.524923 
L 327.087576 159.100033 
L 327.534379 159.100033 
L 327.534379 167.581473 
L 328.427983 167.581473 
L 328.427983 202.293519 
L 329.172654 202.293519 
L 329.172654 205.146415 
L 329.172654 191.770388 
L 329.917324 191.770388 
L 329.917324 203.378052 
L 330.364127 203.378052 
L 330.364127 232.322431 
L 331.108797 232.322431 
L 331.108797 208.396099 
L 331.108797 232.322431 
L 332.747073 232.322431 
L 332.747073 214.277834 
L 337.959766 214.277834 
L 337.959766 214.277834 
L 337.959766 221.239508 
L 342.874592 221.239508 
L 342.874592 206.673801 
L 347.938352 206.673801 
L 347.938352 204.229847 
L 353.597848 204.229847 
L 353.597848 207.356172 
L 359.853081 207.356172 
L 359.853081 219.357856 
L 360.448817 219.357856 
L 360.448817 225.256655 
L 364.618972 225.256655 
L 364.618972 196.350464 
L 370.278469 196.350464 
L 370.278469 210.876372 
L 376.384767 210.876372 
L 376.384767 226.017316 
L 376.980504 226.017316 
L 376.980504 142.753666 
L 383.831473 142.753666 
L 383.831473 144.391957 
L 389.044167 144.391957 
L 389.044167 154.273329 
L 395.150465 154.273329 
L 395.150465 174.109696 
L 399.618489 174.109696 
L 399.618489 132.845253 
L 400.363159 132.845253 
L 400.363159 132.139808 
L 400.363159 132.139808 
L 401.256764 132.139808 
L 401.256764 136.909571 
L 408.405601 136.909571 
L 408.405601 139.784916 
L 413.320427 139.784916 
L 413.320427 129.938353 
L 419.426726 129.938353 
L 419.426726 112.330093 
L 420.171396 112.330093 
L 420.171396 117.394395 
L 421.511803 117.394395 
L 421.511803 114.159525 
L 425.533024 114.159525 
L 425.533024 116.009266 
L 429.554245 116.009266 
L 429.554245 121.790479 
L 430.298916 121.790479 
L 430.298916 100.720795 
L 436.107346 100.720795 
L 436.107346 88.095347 
L 442.213645 88.095347 
L 442.213645 89.074764 
L 447.277405 89.074764 
L 447.277405 82.649289 
L 453.234769 82.649289 
L 453.234769 88.845054 
L 454.128374 88.845054 
L 454.128374 71.274456 
L 458.894265 71.274456 
L 458.894265 79.690541 
L 464.85163 79.690541 
L 464.85163 87.507478 
L 465.894169 87.507478 
L 465.894169 84.11518 
L 472.000467 84.11518 
L 472.000467 84.11518 
L 472.000467 82.251968 
L 478.2557 82.251968 
L 478.2557 75.677478 
L 478.702502 75.677478 
L 478.702502 84.377108 
L 479.596107 84.377108 
L 479.596107 77.011585 
L 486.149208 77.011585 
L 486.149208 83.051482 
L 492.851243 83.051482 
L 492.851243 72.674651 
L 498.361805 72.674651 
L 498.361805 93.910201 
L 503.425565 93.910201 
L 503.425565 87.810991 
L 509.382929 87.810991 
L 509.382929 78.67377 
L 516.531767 78.67377 
L 516.531767 86.942535 
L 519.957251 86.942535 
L 519.957251 89.015362 
L 524.574209 89.015362 
L 524.574209 119.799556 
L 529.935837 119.799556 
L 529.935837 116.60763 
L 535.744267 116.60763 
L 535.744267 111.128944 
L 541.9995 111.128944 
L 541.9995 137.961559 
L 548.999403 137.961559 
L 548.999403 142.256495 
L 555.254636 142.256495 
L 555.254636 166.238274 
L 555.850372 166.238274 
L 555.850372 170.145014 
L 555.850372 170.145014 
L 556.892911 170.145014 
L 556.892911 155.632545 
L 561.807737 155.632545 
L 561.807737 159.715338 
L 568.062969 159.715338 
L 568.062969 168.88603 
L 568.956574 168.88603 
L 568.956574 185.516552 
L 575.062873 185.516552 
L 575.062873 208.578636 
L 575.956477 208.578636 
L 575.956477 180.518108 
L 576.999016 180.518108 
L 576.999016 190.415648 
L 577.892621 190.415648 
L 577.892621 198.002048 
L 583.552117 198.002048 
L 583.552117 199.724704 
L 588.169074 199.724704 
L 588.169074 232.870837 
L 593.530702 232.870837 
L 593.530702 230.827885 
L 599.637001 230.827885 
L 599.637001 219.89994 
L 600.083803 219.89994 
L 600.083803 188.719969 
L 600.083803 219.89994 
L 600.977408 219.89994 
L 600.977408 130.174877 
L 602.466749 130.174877 
L 602.466749 130.834042 
L 602.764617 130.834042 
L 602.764617 150.318292 
L 603.658222 150.318292 
L 603.658222 155.093907 
L 603.658222 150.318292 
L 604.402893 150.318292 
L 604.402893 136.734172 
L 604.402893 155.093907 
L 605.594366 155.093907 
L 605.594366 222.96623 
L 605.594366 136.734172 
L 605.594366 136.734172 
L 606.041168 136.734172 
L 606.041168 222.96623 
L 606.041168 222.96623 
L 607.083707 222.96623 
L 607.083707 241.318542 
L 612.296401 241.318542 
L 612.296401 274.390196 
L 618.253765 274.390196 
L 618.253765 197.319193 
L 623.913261 197.319193 
L 623.913261 211.710751 
L 624.360064 211.710751 
L 624.360064 193.126814 
L 629.870626 193.126814 
L 629.870626 182.541744 
L 634.487583 182.541744 
L 634.487583 213.313454 
L 634.487583 159.47695 
L 641.040684 159.47695 
L 641.040684 193.437527 
L 647.146983 193.437527 
L 647.146983 249.764608 
L 648.040587 249.764608 
L 648.040587 345.031149 
L 648.785258 345.031149 
L 648.785258 145.430546 
L 650.125665 145.430546 
L 650.125665 229.555395 
L 652.210743 229.555395 
L 652.210743 174.601678 
L 658.912778 174.601678 
L 658.912778 119.502878 
L 665.316944 119.502878 
L 665.316944 75.540504 
L 666.359483 75.540504 
L 666.359483 75.540504 
L 666.359483 254.690237 
L 667.69989 254.690237 
L 667.69989 248.771784 
L 673.210452 248.771784 
L 673.210452 245.027444 
L 677.529542 245.027444 
L 677.529542 237.211019 
L 680.657158 237.211019 
L 680.657158 297.314908 
L 681.997565 297.314908 
L 681.997565 161.7321 
L 681.997565 297.314908 
L 689.146402 297.314908 
L 689.146402 64.096389 
L 689.146402 161.7321 
L 695.252701 161.7321 
L 695.252701 7.558834 
L 695.252701 64.096389 
L 695.401635 64.096389 
L 695.401635 7.558834 
L 695.401635 7.558834 
" clip-path="url(#auto-2026-week-2-ind-at-kc-win-probability-p5e0850084e)" style="fill: none; stroke: #1f2e3d; stroke-width: 2"/>
   </g>
   <g id="auto-2026-week-2-ind-at-kc-win-probability-patch_3">
    <path d="M 69.878365 382.998823 
L 69.878365 7.558834 
" style="fill: none; stroke: #c3c9d0; stroke-linejoin: miter; stroke-linecap: square"/>
   </g>
   <g id="auto-2026-week-2-ind-at-kc-win-probability-patch_4">
    <path d="M 69.878365 382.998823 
L 695.401635 382.998823 
" style="fill: none; stroke: #c3c9d0; stroke-linejoin: miter; stroke-linecap: square"/>
   </g>
   <g id="auto-2026-week-2-ind-at-kc-win-probability-logo-KC-1">
    <image xlink:href="logo:KC" id="auto-2026-week-2-ind-at-kc-win-probability-imageaa97e697c6" x="74" y="30" width="30" height="30"/>
   </g>
   <g id="auto-2026-week-2-ind-at-kc-win-probability-logo-IND-2">
    <image xlink:href="logo:IND" id="auto-2026-week-2-ind-at-kc-win-probability-image4091ab321f" x="74" y="330" width="30" height="30"/>
   </g>
  </g>
 </g>
 <defs>
  <clipPath id="auto-2026-week-2-ind-at-kc-win-probability-p5e0850084e">
   <rect x="69.878365" y="7.558834" width="625.52327" height="375.439989"/>
  </clipPath>
 </defs>
</svg>
