<svg class="chart-svg chart-auto-2026-week-3-ari-at-sf-win-probability" xmlns:xlink="http://www.w3.org/1999/xlink" viewBox="0 0 720 240" xmlns="http://www.w3.org/2000/svg" version="1.1">
 <defs>
  <style type="text/css">.chart-auto-2026-week-3-ari-at-sf-win-probability *{stroke-linejoin: round; stroke-linecap: butt}</style>
 </defs>
 <g id="auto-2026-week-3-ari-at-sf-win-probability-figure_1">
  <g id="auto-2026-week-3-ari-at-sf-win-probability-patch_1">
   <path d="M 0 240 
L 720 240 
L 720 0 
L 0 0 
z
" style="fill: #ffffff"/>
  </g>
  <g id="auto-2026-week-3-ari-at-sf-win-probability-axes_1">
   <g id="auto-2026-week-3-ari-at-sf-win-probability-patch_2">
    <path d="M 68.20774 217.998822 
L 705.596947 217.998822 
L 705.596947 7.558834 
L 68.20774 7.558834 
z
" style="fill: #ffffff"/>
   </g>
   <g id="auto-2026-week-3-ari-at-sf-win-probability-matplotlib.axis_1">
    <g id="auto-2026-week-3-ari-at-sf-win-probability-xtick_1">
     <g id="auto-2026-week-3-ari-at-sf-win-probability-line2d_1">
      <defs>
       <path id="auto-2026-week-3-ari-at-sf-win-probability-m1ae11baff4" d="M 0 0 
L 0 3.5 
" style="stroke: #c3c9d0; stroke-width: 0.8"/>
      </defs>
      <g>
       <use xlink:href="#auto-2026-week-3-ari-at-sf-win-probability-m1ae11baff4" x="68.20774" y="217.998822" style="fill: #c3c9d0; stroke: #c3c9d0; stroke-width: 0.8"/>
      </g>
     </g>
     <g id="auto-2026-week-3-ari-at-sf-win-probability-text_1">
      <text style="font-size: 12px; font-family: 'Barlow', system-ui, sans-serif; text-anchor: middle; fill: #5b6570" x="68.20774" y="234.116948" transform="rotate(-0 68.20774 234.116948)">Kickoff</text>
     </g>
    </g>
    <g id="auto-2026-week-3-ari-at-sf-win-probability-xtick_2">
     <g id="auto-2026-week-3-ari-at-sf-win-probability-line2d_2">
      <g>
       <use xlink:href="#auto-2026-week-3-ari-at-sf-win-probability-m1ae11baff4" x="227.555042" y="217.998822" style="fill: #c3c9d0; stroke: #c3c9d0; stroke-width: 0.8"/>
      </g>
     </g>
     <g id="auto-2026-week-3-ari-at-sf-win-probability-text_2">
      <text style="font-size: 12px; font-family: 'Barlow', system-ui, sans-serif; text-anchor: middle; fill: #5b6570" x="227.555042" y="234.11601" transform="rotate(-0 227.555042 234.11601)">Q2</text>
     </g>
    </g>
    <g id="auto-2026-week-3-ari-at-sf-win-probability-xtick_3">
     <g id="auto-2026-week-3-ari-at-sf-win-probability-line2d_3">
      <g>
       <use xlink:href="#auto-2026-week-3-ari-at-sf-win-probability-m1ae11baff4" x="386.902344" y="217.998822" style="fill: #c3c9d0; stroke: #c3c9d0; stroke-width: 0.8"/>
      </g>
     </g>
     <g id="auto-2026-week-3-ari-at-sf-win-probability-text_3">
      <text style="font-size: 12px; font-family: 'Barlow', system-ui, sans-serif; text-anchor: middle; fill: #5b6570" x="386.902344" y="234.11601" transform="rotate(-0 386.902344 234.11601)">Q3</text>
     </g>
    </g>
    <g id="auto-2026-week-3-ari-at-sf-win-probability-xtick_4">
     <g id="auto-2026-week-3-ari-at-sf-win-probability-line2d_4">
      <g>
       <use xlink:href="#auto-2026-week-3-ari-at-sf-win-probability-m1ae11baff4" x="546.249646" y="217.998822" style="fill: #c3c9d0; stroke: #c3c9d0; stroke-width: 0.8"/>
      </g>
     </g>
     <g id="auto-2026-week-3-ari-at-sf-win-probability-text_4">
      <text style="font-size: 12px; font-family: 'Barlow', system-ui, sans-serif; text-anchor: middle; fill: #5b6570" x="546.249646" y="234.11601" transform="rotate(-0 546.249646 234.11601)">Q4</text>
     </g>
    </g>
    <g id="auto-2026-week-3-ari-at-sf-win-probability-xtick_5">
     <g id="auto-2026-week-3-ari-at-sf-win-probability-line2d_5">
      <g>
       <use xlink:href="#auto-2026-week-3-ari-at-sf-win-probability-m1ae11baff4" x="705.596947" y="217.998822" style="fill: #c3c9d0; stroke: #c3c9d0; stroke-width: 0.8"/>
      </g>
     </g>
     <g id="auto-2026-week-3-ari-at-sf-win-probability-text_5">
      <text style="font-size: 12px; font-family: 'Barlow', system-ui, sans-serif; text-anchor: middle; fill: #5b6570" x="705.596947" y="234.116948" transform="rotate(-0 705.596947 234.116948)">End</text>
     </g>
    </g>
   </g>
   <g id="auto-2026-week-3-ari-at-sf-win-probability-matplotlib.axis_2">
    <g id="auto-2026-week-3-ari-at-sf-win-probability-ytick_1">
     <g id="auto-2026-week-3-ari-at-sf-win-probability-line2d_6">
      <path d="M 68.20774 217.998822 
L 705.596947 217.998822 
" clip-path="url(#auto-2026-week-3-ari-at-sf-win-probability-pa08dbc33e4)" style="fill: none; stroke-dasharray: 1,2; stroke-dashoffset: 0; stroke: #d9dde2"/>
     </g>
     <g id="auto-2026-week-3-ari-at-sf-win-probability-line2d_7">
      <defs>
       <path id="auto-2026-week-3-ari-at-sf-win-probability-mbf17b5863f" d="M 0 0 
L -3.5 0 
" style="stroke: #c3c9d0; stroke-width: 0.8"/>
      </defs>
      <g>
       <use xlink:href="#auto-2026-week-3-ari-at-sf-win-probability-mbf17b5863f" x="68.20774" y="217.998822" style="fill: #c3c9d0; stroke: #c3c9d0; stroke-width: 0.8"/>
      </g>
     </g>
     <g id="auto-2026-week-3-ari-at-sf-win-probability-text_6">
      <text style="font-size: 12px; font-family: 'Barlow', system-ui, sans-serif; text-anchor: end; fill: #5b6570" x="61.20774" y="222.557416" transform="rotate(-0 61.20774 222.557416)">ARI 100%</text>
     </g>
    </g>
    <g id="auto-2026-week-3-ari-at-sf-win-probability-ytick_2">
     <g id="auto-2026-week-3-ari-at-sf-win-probability-line2d_8">
      <path d="M 68.20774 165.388825 
L 705.596947 165.388825 
" clip-path="url(#auto-2026-week-3-ari-at-sf-win-probability-pa08dbc33e4)" style="fill: none; stroke-dasharray: 1,2; stroke-dashoffset: 0; stroke: #d9dde2"/>
     </g>
     <g id="auto-2026-week-3-ari-at-sf-win-probability-line2d_9">
      <g>
       <use xlink:href="#auto-2026-week-3-ari-at-sf-win-probability-mbf17b5863f" x="68.20774" y="165.388825" style="fill: #c3c9d0; stroke: #c3c9d0; stroke-width: 0.8"/>
      </g>
     </g>
     <g id="auto-2026-week-3-ari-at-sf-win-probability-text_7">
      <text style="font-size: 12px; font-family: 'Barlow', system-ui, sans-serif; text-anchor: end; fill: #5b6570" x="61.20774" y="169.947419" transform="rotate(-0 61.20774 169.947419)">ARI 75%</text>
     </g>
    </g>
    <g id="auto-2026-week-3-ari-at-sf-win-probability-ytick_3">
     <g id="auto-2026-week-3-ari-at-sf-win-probability-line2d_10">
      <path d="M 68.20774 112.778828 
L 705.596947 112.778828 
" clip-path="url(#auto-2026-week-3-ari-at-sf-win-probability-pa08dbc33e4)" style="fill: none; stroke-dasharray: 1,2; stroke-dashoffset: 0; stroke: #d9dde2"/>
     </g>
     <g id="auto-2026-week-3-ari-at-sf-win-probability-line2d_11">
      <g>
       <use xlink:href="#auto-2026-week-3-ari-at-sf-win-probability-mbf17b5863f" x="68.20774" y="112.778828" style="fill: #c3c9d0; stroke: #c3c9d0; stroke-width: 0.8"/>
      </g>
     </g>
     <g id="auto-2026-week-3-ari-at-sf-win-probability-text_8">
      <text style="font-size: 12px; font-family: 'Barlow', system-ui, sans-serif; text-anchor: end; fill: #5b6570" x="61.20774" y="117.337422" transform="rotate(-0 61.20774 117.337422)">50%</text>
     </g>
    </g>
    <g id="auto-2026-week-3-ari-at-sf-win-probability-ytick_4">
     <g id="auto-2026-week-3-ari-at-sf-win-probability-line2d_12">
      <path d="M 68.20774 60.168831 
L 705.596947 60.168831 
" clip-path="url(#auto-2026-week-3-ari-at-sf-win-probability-pa08dbc33e4)" style="fill: none; stroke-dasharray: 1,2; stroke-dashoffset: 0; stroke: #d9dde2"/>
     </g>
     <g id="auto-2026-week-3-ari-at-sf-win-probability-line2d_13">
      <g>
       <use xlink:href="#auto-2026-week-3-ari-at-sf-win-probability-mbf17b5863f" x="68.20774" y="60.168831" style="fill: #c3c9d0; stroke: #c3c9d0; stroke-width: 0.8"/>
      </g>
     </g>
     <g id="auto-2026-week-3-ari-at-sf-win-probability-text_9">
      <text style="font-size: 12px; font-family: 'Barlow', system-ui, sans-serif; text-anchor: end; fill: #5b6570" x="61.20774" y="64.727425" transform="rotate(-0 61.20774 64.727425)">SF 75%</text>
     </g>
    </g>
    <g id="auto-2026-week-3-ari-at-sf-win-probability-ytick_5">
     <g id="auto-2026-week-3-ari-at-sf-win-probability-line2d_14">
      <path d="M 68.20774 7.558834 
L 705.596947 7.558834 
" clip-path="url(#auto-2026-week-3-ari-at-sf-win-probability-pa08dbc33e4)" style="fill: none; stroke-dasharray: 1,2; stroke-dashoffset: 0; stroke: #d9dde2"/>
     </g>
     <g id="auto-2026-week-3-ari-at-sf-win-probability-line2d_15">
      <g>
       <use xlink:href="#auto-2026-week-3-ari-at-sf-win-probability-mbf17b5863f" x="68.20774" y="7.558834" style="fill: #c3c9d0; stroke: #c3c9d0; stroke-width: 0.8"/>
      </g>
     </g>
     <g id="auto-2026-week-3-ari-at-sf-win-probability-text_10">
      <text style="font-size: 12px; font-family: 'Barlow', system-ui, sans-serif; text-anchor: end; fill: #5b6570" x="61.20774" y="12.117427" transform="rotate(-0 61.20774 12.117427)">SF 100%</text>
     </g>
    </g>
   </g>
   <g id="auto-2026-week-3-ari-at-sf-win-probability-line2d_16">
    <path d="M 68.20774 112.778828 
L 705.596947 112.778828 
" clip-path="url(#auto-2026-week-3-ari-at-sf-win-probability-pa08dbc33e4)" style="fill: none; stroke: #c3c9d0"/>
   </g>
   <g id="auto-2026-week-3-ari-at-sf-win-probability-line2d_17">
    <path d="M 68.20774 98.723112 
L 69.093003 98.723112 
L 69.093003 100.83284 
L 74.581632 100.83284 
L 74.581632 97.034929 
L 75.11279 97.034929 
L 75.11279 103.287858 
L 88.214679 103.188347 
L 88.214679 99.798534 
L 95.473834 99.798534 
L 95.473834 108.594837 
L 102.378884 108.594837 
L 102.378884 104.749819 
L 103.087094 104.749819 
L 103.087094 105.863624 
L 109.638038 105.863624 
L 109.638038 119.178683 
L 116.011931 119.178683 
L 116.011931 112.884931 
L 120.615297 112.884931 
L 120.615297 96.912457 
L 126.458031 96.912457 
L 126.458031 89.156607 
L 127.166242 89.156607 
L 127.166242 90.46983 
L 128.759715 90.46983 
L 128.759715 94.076978 
L 129.290872 94.076978 
L 129.290872 98.294153 
L 135.487712 98.294153 
L 135.487712 56.032742 
L 137.966448 56.032742 
L 137.966448 55.629487 
L 137.966448 55.680582 
L 139.028763 55.680582 
L 139.028763 57.192803 
L 141.861604 57.192803 
L 141.861604 59.983041 
L 145.75676 59.983041 
L 145.75676 63.0089 
L 153.015915 63.0089 
L 153.015915 63.803104 
L 159.212755 63.803104 
L 159.212755 57.790938 
L 162.576753 57.790938 
L 162.576753 58.262888 
L 170.012961 58.262888 
L 170.012961 52.100746 
L 171.252329 52.100746 
L 171.252329 53.632406 
L 172.491696 53.632406 
L 172.491696 49.098741 
L 179.573799 49.098741 
L 179.573799 50.577986 
L 186.478849 50.577986 
L 186.478849 52.036346 
L 188.072322 52.036346 
L 188.072322 57.685917 
L 196.393792 57.685917 
L 196.393792 45.920545 
L 196.393792 57.685917 
L 203.829999 57.685917 
L 203.829999 47.927093 
L 205.24642 47.927093 
L 205.24642 53.954189 
L 212.151469 53.954189 
L 212.151469 41.921447 
L 220.118834 41.921447 
L 220.118834 38.523054 
L 227.555042 38.523054 
L 227.555042 38.523054 
L 227.555042 32.864146 
L 228.440305 32.864146 
L 228.440305 32.835502 
L 228.440305 33.024121 
L 229.856725 33.024121 
L 229.856725 31.681286 
L 236.938827 31.681286 
L 236.938827 32.471115 
L 243.843877 32.471115 
L 243.843877 28.39207 
L 248.270191 28.39207 
L 248.270191 28.087938 
L 256.237556 28.087938 
L 256.237556 29.053214 
L 258.185134 29.053214 
L 258.185134 28.703472 
L 263.319659 28.703472 
L 263.319659 30.736812 
L 264.736079 30.736812 
L 264.736079 33.981462 
L 265.798394 33.981462 
L 265.798394 34.274089 
L 267.923025 34.274089 
L 267.923025 33.743102 
L 274.828075 33.743102 
L 274.828075 32.235215 
L 279.785546 32.235215 
L 279.785546 33.82675 
L 281.556072 33.82675 
L 281.556072 32.290667 
L 288.107017 32.290667 
L 288.107017 33.82675 
L 293.949751 33.82675 
L 293.949751 32.525821 
L 297.31375 32.525821 
L 297.31375 32.223696 
L 303.510589 32.223696 
L 303.510589 31.298019 
L 307.05164 31.298019 
L 307.05164 40.944203 
L 314.133743 40.944203 
L 314.133743 34.764741 
L 317.497741 34.764741 
L 317.497741 38.687038 
L 324.756896 38.687038 
L 324.756896 35.971244 
L 332.547209 36.002636 
L 332.547209 44.192459 
L 339.275206 44.192459 
L 339.275206 39.628825 
L 346.003203 39.628825 
L 346.003203 36.844285 
L 346.711413 36.844285 
L 346.711413 35.289179 
L 353.616463 35.289179 
L 353.616463 29.006515 
L 354.501726 29.006515 
L 354.501726 28.304171 
L 355.386988 28.304171 
L 355.386988 29.039905 
L 362.292038 29.039905 
L 362.292038 30.297324 
L 365.656037 30.297324 
L 365.656037 26.594721 
L 366.718352 26.594721 
L 366.718352 27.905887 
L 367.603615 27.905887 
L 367.603615 31.438216 
L 368.311825 31.438216 
L 368.311825 33.692354 
L 369.020035 33.692354 
L 369.020035 36.547613 
L 369.020035 33.692354 
L 370.967614 33.692354 
L 370.967614 37.857782 
L 374.331612 37.857782 
L 374.331612 42.650417 
L 375.216875 42.650417 
L 375.216875 43.082285 
L 378.580874 43.082285 
L 378.580874 50.160288 
L 379.643189 50.160288 
L 379.643189 47.928937 
L 380.528452 47.928937 
L 380.528452 42.105176 
L 381.590767 42.105176 
L 381.590767 35.199677 
L 381.590767 42.105176 
L 382.121925 42.105176 
L 382.121925 37.966212 
L 383.89245 37.966212 
L 383.89245 30.486538 
L 385.485923 30.486538 
L 385.485923 31.792298 
L 386.194134 31.792298 
L 386.194134 33.180316 
L 386.194134 31.792298 
L 386.902344 31.792298 
L 386.902344 33.180316 
L 386.902344 29.451059 
L 394.338551 29.451059 
L 394.338551 27.039277 
L 401.243601 27.039277 
L 401.243601 26.79673 
L 408.148651 26.79673 
L 408.148651 23.060637 
L 416.116016 23.060637 
L 416.116016 22.624121 
L 421.25054 22.624121 
L 421.25054 20.066462 
L 427.624432 20.066462 
L 427.624432 18.885986 
L 428.15559 18.885986 
L 428.15559 23.323188 
L 429.217905 23.323188 
L 429.217905 22.548827 
L 434.706534 22.548827 
L 434.706534 24.190143 
L 447.631371 24.190143 
L 447.631371 24.370277 
L 454.359368 24.370277 
L 454.359368 25.008598 
L 458.60863 25.008598 
L 458.60863 24.803546 
L 464.805469 24.803546 
L 464.805469 21.734107 
L 471.887571 21.734107 
L 471.887571 22.109489 
L 478.969674 22.109489 
L 478.969674 26.059326 
L 485.343566 26.059326 
L 485.343566 23.737183 
L 491.009248 23.737183 
L 491.009248 21.380505 
L 498.622508 21.380505 
L 498.622508 23.5113 
L 498.622508 21.380505 
L 506.058715 21.380505 
L 506.058715 21.982684 
L 513.140817 21.982684 
L 513.140817 34.562441 
L 514.02608 34.562441 
L 514.02608 35.199345 
L 514.02608 34.861117 
L 515.265448 34.861117 
L 515.265448 37.401153 
L 521.816393 37.401153 
L 521.816393 40.300476 
L 523.409866 40.300476 
L 523.409866 41.672916 
L 527.659127 41.672916 
L 527.659127 43.326737 
L 534.564177 43.326737 
L 534.564177 37.168912 
L 536.334702 37.168912 
L 536.334702 33.846628 
L 537.57407 33.846628 
L 537.57407 31.833011 
L 538.282281 31.833011 
L 538.282281 25.929195 
L 538.990491 25.929195 
L 538.990491 50.033069 
L 540.761016 50.033069 
L 540.761016 52.167576 
L 546.249646 52.167576 
L 546.249646 52.167576 
L 546.249646 57.857364 
L 553.154695 57.857364 
L 553.154695 45.42242 
L 560.767955 45.42242 
L 560.767955 73.342604 
L 561.830271 73.342604 
L 561.830271 71.280131 
L 565.725427 71.280131 
L 565.725427 61.931308 
L 566.433637 61.931308 
L 566.433637 62.214941 
L 566.433637 55.67267 
L 572.807529 55.67267 
L 572.807529 51.936264 
L 579.004369 51.936264 
L 579.004369 45.114795 
L 586.263524 45.114795 
L 586.263524 41.433215 
L 593.699731 41.433215 
L 593.699731 38.713962 
L 599.719518 38.713962 
L 599.719518 38.222983 
L 606.80162 38.222983 
L 606.80162 40.30158 
L 607.509831 40.30158 
L 607.509831 37.345762 
L 612.467302 37.345762 
L 612.467302 27.738482 
L 613.175512 27.738482 
L 613.175512 32.588855 
L 613.883723 32.588855 
L 613.883723 26.675987 
L 619.195299 26.675987 
L 619.195299 25.605994 
L 624.152771 25.605994 
L 624.152771 32.809434 
L 631.057821 32.809434 
L 631.057821 32.663462 
L 634.598872 32.663462 
L 634.598872 32.462525 
L 637.96287 32.462525 
L 637.96287 36.199392 
L 644.15971 36.199392 
L 644.15971 31.007852 
L 650.35655 31.007852 
L 650.35655 29.032646 
L 653.897601 29.032646 
L 653.897601 38.55402 
L 657.969809 38.55402 
L 657.969809 43.845501 
L 663.812544 43.845501 
L 663.812544 39.76957 
L 664.697807 39.76957 
L 664.697807 44.874834 
L 670.363489 44.874834 
L 670.363489 45.91878 
L 674.61275 45.91878 
L 674.61275 52.850565 
L 675.32096 52.850565 
L 675.32096 52.963678 
L 675.32096 31.86999 
L 683.111273 31.86999 
L 683.111273 29.07174 
L 683.819483 29.07174 
L 683.819483 24.142275 
L 685.058851 24.142275 
L 685.058851 28.014361 
L 685.767061 28.014361 
L 685.767061 18.022347 
L 685.767061 28.014361 
L 687.714639 28.014361 
L 687.714639 15.574453 
L 688.599902 15.574453 
L 688.599902 11.991135 
L 688.422849 11.991135 
L 688.422849 15.574453 
L 689.485165 15.574453 
L 689.485165 11.623749 
L 689.485165 12.037591 
L 690.370428 12.037591 
L 690.370428 14.434226 
L 691.963901 14.434226 
L 691.963901 12.811454 
L 695.504952 12.811454 
L 695.504952 15.59846 
L 698.514845 15.59846 
L 698.514845 14.755429 
L 698.691898 14.755429 
L 698.691898 10.458884 
L 698.691898 14.755429 
L 699.577161 14.755429 
L 699.577161 9.648255 
L 705.596947 9.648255 
L 705.596947 7.558834 
L 705.596947 7.558834 
" clip-path="url(#auto-2026-week-3-ari-at-sf-win-probability-pa08dbc33e4)" style="fill: none; stroke: #1f2e3d; stroke-width: 2"/>
   </g>
   <g id="auto-2026-week-3-ari-at-sf-win-probability-patch_3">
    <path d="M 68.20774 217.998822 
L 68.20774 7.558834 
" style="fill: none; stroke: #c3c9d0; stroke-linejoin: miter; stroke-linecap: square"/>
   </g>
   <g id="auto-2026-week-3-ari-at-sf-win-probability-patch_4">
    <path d="M 68.20774 217.998822 
L 705.596947 217.998822 
" style="fill: none; stroke: #c3c9d0; stroke-linejoin: miter; stroke-linecap: square"/>
   </g>
   <g id="auto-2026-week-3-ari-at-sf-win-probability-logo-SF-1">
    <image xlink:href="logo:SF" id="auto-2026-week-3-ari-at-sf-win-probability-image94c26d22cc" x="72" y="14" width="30" height="30"/>
   </g>
   <g id="auto-2026-week-3-ari-at-sf-win-probability-logo-ARI-2">
    <image xlink:href="logo:ARI" id="auto-2026-week-3-ari-at-sf-win-probability-image800c388eed" x="72" y="182" width="30" height="30"/>
   </g>
  </g>
 </g>
 <defs>
  <clipPath id="auto-2026-week-3-ari-at-sf-win-probability-pa08dbc33e4">
   <rect x="68.20774" y="7.558834" width="637.389207" height="210.439989"/>
  </clipPath>
 </defs>
</svg>
