<svg class="chart-svg chart-auto-2026-week-4-gb-at-tb-win-probability" xmlns:xlink="http://www.w3.org/1999/xlink" viewBox="0 0 720 405" xmlns="http://www.w3.org/2000/svg" version="1.1">
 <defs>
  <style type="text/css">.chart-auto-2026-week-4-gb-at-tb-win-probability *{stroke-linejoin: round; stroke-linecap: butt}</style>
 </defs>
 <g id="auto-2026-week-4-gb-at-tb-win-probability-figure_1">
  <g id="auto-2026-week-4-gb-at-tb-win-probability-patch_1">
   <path d="M 0 405 
L 720 405 
L 720 0 
L 0 0 
z
" style="fill: #ffffff"/>
  </g>
  <g id="auto-2026-week-4-gb-at-tb-win-probability-axes_1">
   <g id="auto-2026-week-4-gb-at-tb-win-probability-patch_2">
    <path d="M 65.652115 382.998823 
L 705.596947 382.998823 
L 705.596947 7.558834 
L 65.652115 7.558834 
z
" style="fill: #ffffff"/>
   </g>
   <g id="auto-2026-week-4-gb-at-tb-win-probability-matplotlib.axis_1">
    <g id="auto-2026-week-4-gb-at-tb-win-probability-xtick_1">
     <g id="auto-2026-week-4-gb-at-tb-win-probability-line2d_1">
      <defs>
       <path id="auto-2026-week-4-gb-at-tb-win-probability-mdf934f28dc" d="M 0 0 
L 0 3.5 
" style="stroke: #c3c9d0; stroke-width: 0.8"/>
      </defs>
      <g>
       <use xlink:href="#auto-2026-week-4-gb-at-tb-win-probability-mdf934f28dc" x="65.652115" y="382.998823" style="fill: #c3c9d0; stroke: #c3c9d0; stroke-width: 0.8"/>
      </g>
     </g>
     <g id="auto-2026-week-4-gb-at-tb-win-probability-text_1">
      <text style="font-size: 12px; font-family: 'Barlow', system-ui, sans-serif; text-anchor: middle; fill: #5b6570" x="65.652115" y="399.116947" transform="rotate(-0 65.652115 399.116947)">Kickoff</text>
     </g>
    </g>
    <g id="auto-2026-week-4-gb-at-tb-win-probability-xtick_2">
     <g id="auto-2026-week-4-gb-at-tb-win-probability-line2d_2">
      <g>
       <use xlink:href="#auto-2026-week-4-gb-at-tb-win-probability-mdf934f28dc" x="225.638323" y="382.998823" style="fill: #c3c9d0; stroke: #c3c9d0; stroke-width: 0.8"/>
      </g>
     </g>
     <g id="auto-2026-week-4-gb-at-tb-win-probability-text_2">
      <text style="font-size: 12px; font-family: 'Barlow', system-ui, sans-serif; text-anchor: middle; fill: #5b6570" x="225.638323" y="399.11601" transform="rotate(-0 225.638323 399.11601)">Q2</text>
     </g>
    </g>
    <g id="auto-2026-week-4-gb-at-tb-win-probability-xtick_3">
     <g id="auto-2026-week-4-gb-at-tb-win-probability-line2d_3">
      <g>
       <use xlink:href="#auto-2026-week-4-gb-at-tb-win-probability-mdf934f28dc" x="385.624531" y="382.998823" style="fill: #c3c9d0; stroke: #c3c9d0; stroke-width: 0.8"/>
      </g>
     </g>
     <g id="auto-2026-week-4-gb-at-tb-win-probability-text_3">
      <text style="font-size: 12px; font-family: 'Barlow', system-ui, sans-serif; text-anchor: middle; fill: #5b6570" x="385.624531" y="399.11601" transform="rotate(-0 385.624531 399.11601)">Q3</text>
     </g>
    </g>
    <g id="auto-2026-week-4-gb-at-tb-win-probability-xtick_4">
     <g id="auto-2026-week-4-gb-at-tb-win-probability-line2d_4">
      <g>
       <use xlink:href="#auto-2026-week-4-gb-at-tb-win-probability-mdf934f28dc" x="545.610739" y="382.998823" style="fill: #c3c9d0; stroke: #c3c9d0; stroke-width: 0.8"/>
      </g>
     </g>
     <g id="auto-2026-week-4-gb-at-tb-win-probability-text_4">
      <text style="font-size: 12px; font-family: 'Barlow', system-ui, sans-serif; text-anchor: middle; fill: #5b6570" x="545.610739" y="399.11601" transform="rotate(-0 545.610739 399.11601)">Q4</text>
     </g>
    </g>
    <g id="auto-2026-week-4-gb-at-tb-win-probability-xtick_5">
     <g id="auto-2026-week-4-gb-at-tb-win-probability-line2d_5">
      <g>
       <use xlink:href="#auto-2026-week-4-gb-at-tb-win-probability-mdf934f28dc" x="705.596947" y="382.998823" style="fill: #c3c9d0; stroke: #c3c9d0; stroke-width: 0.8"/>
      </g>
     </g>
     <g id="auto-2026-week-4-gb-at-tb-win-probability-text_5">
      <text style="font-size: 12px; font-family: 'Barlow', system-ui, sans-serif; text-anchor: middle; fill: #5b6570" x="705.596947" y="399.116947" transform="rotate(-0 705.596947 399.116947)">End</text>
     </g>
    </g>
   </g>
   <g id="auto-2026-week-4-gb-at-tb-win-probability-matplotlib.axis_2">
    <g id="auto-2026-week-4-gb-at-tb-win-probability-ytick_1">
     <g id="auto-2026-week-4-gb-at-tb-win-probability-line2d_6">
      <path d="M 65.652115 382.998823 
L 705.596947 382.998823 
" clip-path="url(#auto-2026-week-4-gb-at-tb-win-probability-p68642c0206)" style="fill: none; stroke-dasharray: 1,2; stroke-dashoffset: 0; stroke: #d9dde2"/>
     </g>
     <g id="auto-2026-week-4-gb-at-tb-win-probability-line2d_7">
      <defs>
       <path id="auto-2026-week-4-gb-at-tb-win-probability-ma7b4aa30d3" d="M 0 0 
L -3.5 0 
" style="stroke: #c3c9d0; stroke-width: 0.8"/>
      </defs>
      <g>
       <use xlink:href="#auto-2026-week-4-gb-at-tb-win-probability-ma7b4aa30d3" x="65.652115" y="382.998823" style="fill: #c3c9d0; stroke: #c3c9d0; stroke-width: 0.8"/>
      </g>
     </g>
     <g id="auto-2026-week-4-gb-at-tb-win-probability-text_6">
      <text style="font-size: 12px; font-family: 'Barlow', system-ui, sans-serif; text-anchor: end; fill: #5b6570" x="58.652115" y="387.557416" transform="rotate(-0 58.652115 387.557416)">GB 100%</text>
     </g>
    </g>
    <g id="auto-2026-week-4-gb-at-tb-win-probability-ytick_2">
     <g id="auto-2026-week-4-gb-at-tb-win-probability-line2d_8">
      <path d="M 65.652115 289.138825 
L 705.596947 289.138825 
" clip-path="url(#auto-2026-week-4-gb-at-tb-win-probability-p68642c0206)" style="fill: none; stroke-dasharray: 1,2; stroke-dashoffset: 0; stroke: #d9dde2"/>
     </g>
     <g id="auto-2026-week-4-gb-at-tb-win-probability-line2d_9">
      <g>
       <use xlink:href="#auto-2026-week-4-gb-at-tb-win-probability-ma7b4aa30d3" x="65.652115" y="289.138825" style="fill: #c3c9d0; stroke: #c3c9d0; stroke-width: 0.8"/>
      </g>
     </g>
     <g id="auto-2026-week-4-gb-at-tb-win-probability-text_7">
      <text style="font-size: 12px; font-family: 'Barlow', system-ui, sans-serif; text-anchor: end; fill: #5b6570" x="58.652115" y="293.697419" transform="rotate(-0 58.652115 293.697419)">GB 75%</text>
     </g>
    </g>
    <g id="auto-2026-week-4-gb-at-tb-win-probability-ytick_3">
     <g id="auto-2026-week-4-gb-at-tb-win-probability-line2d_10">
      <path d="M 65.652115 195.278828 
L 705.596947 195.278828 
" clip-path="url(#auto-2026-week-4-gb-at-tb-win-probability-p68642c0206)" style="fill: none; stroke-dasharray: 1,2; stroke-dashoffset: 0; stroke: #d9dde2"/>
     </g>
     <g id="auto-2026-week-4-gb-at-tb-win-probability-line2d_11">
      <g>
       <use xlink:href="#auto-2026-week-4-gb-at-tb-win-probability-ma7b4aa30d3" x="65.652115" y="195.278828" style="fill: #c3c9d0; stroke: #c3c9d0; stroke-width: 0.8"/>
      </g>
     </g>
     <g id="auto-2026-week-4-gb-at-tb-win-probability-text_8">
      <text style="font-size: 12px; font-family: 'Barlow', system-ui, sans-serif; text-anchor: end; fill: #5b6570" x="58.652115" y="199.837422" transform="rotate(-0 58.652115 199.837422)">50%</text>
     </g>
    </g>
    <g id="auto-2026-week-4-gb-at-tb-win-probability-ytick_4">
     <g id="auto-2026-week-4-gb-at-tb-win-probability-line2d_12">
      <path d="M 65.652115 101.418831 
L 705.596947 101.418831 
" clip-path="url(#auto-2026-week-4-gb-at-tb-win-probability-p68642c0206)" style="fill: none; stroke-dasharray: 1,2; stroke-dashoffset: 0; stroke: #d9dde2"/>
     </g>
     <g id="auto-2026-week-4-gb-at-tb-win-probability-line2d_13">
      <g>
       <use xlink:href="#auto-2026-week-4-gb-at-tb-win-probability-ma7b4aa30d3" x="65.652115" y="101.418831" style="fill: #c3c9d0; stroke: #c3c9d0; stroke-width: 0.8"/>
      </g>
     </g>
     <g id="auto-2026-week-4-gb-at-tb-win-probability-text_9">
      <text style="font-size: 12px; font-family: 'Barlow', system-ui, sans-serif; text-anchor: end; fill: #5b6570" x="58.652115" y="105.977425" transform="rotate(-0 58.652115 105.977425)">TB 75%</text>
     </g>
    </g>
    <g id="auto-2026-week-4-gb-at-tb-win-probability-ytick_5">
     <g id="auto-2026-week-4-gb-at-tb-win-probability-line2d_14">
      <path d="M 65.652115 7.558834 
L 705.596947 7.558834 
" clip-path="url(#auto-2026-week-4-gb-at-tb-win-probability-p68642c0206)" style="fill: none; stroke-dasharray: 1,2; stroke-dashoffset: 0; stroke: #d9dde2"/>
     </g>
     <g id="auto-2026-week-4-gb-at-tb-win-probability-line2d_15">
      <g>
       <use xlink:href="#auto-2026-week-4-gb-at-tb-win-probability-ma7b4aa30d3" x="65.652115" y="7.558834" style="fill: #c3c9d0; stroke: #c3c9d0; stroke-width: 0.8"/>
      </g>
     </g>
     <g id="auto-2026-week-4-gb-at-tb-win-probability-text_10">
      <text style="font-size: 12px; font-family: 'Barlow', system-ui, sans-serif; text-anchor: end; fill: #5b6570" x="58.652115" y="12.117427" transform="rotate(-0 58.652115 12.117427)">TB 100%</text>
     </g>
    </g>
   </g>
   <g id="auto-2026-week-4-gb-at-tb-win-probability-line2d_16">
    <path d="M 65.652115 195.278828 
L 705.596947 195.278828 
" clip-path="url(#auto-2026-week-4-gb-at-tb-win-probability-p68642c0206)" style="fill: none; stroke: #c3c9d0"/>
   </g>
   <g id="auto-2026-week-4-gb-at-tb-win-probability-line2d_17">
    <path d="M 65.652115 177.910303 
L 65.652115 180.437246 
L 71.696038 180.437246 
L 71.696038 175.173858 
L 78.273249 175.173858 
L 78.273249 190.741046 
L 84.13941 190.741046 
L 84.13941 193.709528 
L 85.383747 193.709528 
L 85.383747 189.703436 
L 92.672008 189.703436 
L 92.672008 213.163076 
L 100.315793 213.163076 
L 100.315793 209.154622 
L 106.004192 209.154622 
L 106.004192 200.525298 
L 113.292453 200.525298 
L 113.292453 189.465939 
L 114.181265 189.465939 
L 114.181265 181.621197 
L 115.603364 181.621197 
L 115.603364 177.910303 
L 120.936238 177.910303 
L 120.936238 178.133165 
L 127.335686 178.133165 
L 127.335686 168.031885 
L 133.912897 168.031885 
L 133.912897 174.803615 
L 141.023395 174.803615 
L 141.023395 163.574172 
L 148.311656 163.574172 
L 148.311656 198.646645 
L 149.200468 198.646645 
L 149.200468 201.952318 
L 155.955441 201.952318 
L 155.955441 233.723236 
L 164.488039 233.723236 
L 164.488039 230.124702 
L 171.7763 230.124702 
L 171.7763 219.912159 
L 179.242323 219.912159 
L 179.242323 215.3665 
L 185.641771 215.3665 
L 185.641771 242.92801 
L 191.685695 242.92801 
L 191.685695 237.157515 
L 198.440668 237.157515 
L 198.440668 234.873978 
L 204.662354 234.873978 
L 204.662354 224.385649 
L 211.950614 224.385649 
L 211.950614 246.731459 
L 219.416637 246.731459 
L 219.416637 243.633654 
L 225.638323 243.633654 
L 225.638323 243.633654 
L 225.638323 236.615722 
L 226.349373 236.615722 
L 226.349373 254.035851 
L 226.704898 254.035851 
L 226.704898 242.020359 
L 232.926584 242.020359 
L 232.926584 232.501578 
L 232.926584 242.020359 
L 240.392607 242.020359 
L 240.392607 219.212668 
L 247.325342 219.212668 
L 247.325342 262.524686 
L 247.325342 219.212668 
L 248.036392 219.212668 
L 248.036392 262.967502 
L 248.036392 262.685819 
L 254.080316 262.685819 
L 254.080316 268.534032 
L 254.791365 268.534032 
L 254.791365 276.333694 
L 259.946477 276.333694 
L 259.946477 271.034446 
L 261.190814 271.034446 
L 261.190814 262.062067 
L 265.634875 262.062067 
L 265.634875 261.89553 
L 270.078936 261.89553 
L 270.078936 253.868643 
L 270.967749 253.868643 
L 270.967749 245.235984 
L 272.212086 245.235984 
L 272.212086 252.667214 
L 274.167473 252.667214 
L 274.167473 256.102311 
L 281.100209 256.102311 
L 281.100209 261.332903 
L 288.921757 261.332903 
L 288.921757 239.467615 
L 293.899105 239.467615 
L 293.899105 239.855828 
L 299.943029 239.855828 
L 299.943029 232.419406 
L 305.80919 232.419406 
L 305.80919 254.538494 
L 313.630738 254.538494 
L 313.630738 225.599072 
L 321.452286 225.599072 
L 321.452286 210.957134 
L 329.273833 210.957134 
L 329.273833 194.132236 
L 329.984883 194.132236 
L 329.984883 191.704821 
L 329.984883 191.704821 
L 331.051458 191.704821 
L 331.051458 184.264672 
L 333.895657 184.264672 
L 333.895657 193.768349 
L 341.36168 193.768349 
L 341.36168 182.376677 
L 349.005466 182.376677 
L 349.005466 166.217849 
L 349.716516 166.217849 
L 349.716516 183.542189 
L 350.960853 183.542189 
L 350.960853 186.666466 
L 355.049389 186.666466 
L 355.049389 179.324859 
L 362.159887 179.324859 
L 362.159887 169.429143 
L 364.293037 169.429143 
L 364.293037 166.643444 
L 364.826324 166.643444 
L 364.826324 168.692349 
L 365.892899 168.692349 
L 365.892899 170.157456 
L 372.647872 170.157456 
L 372.647872 190.654578 
L 373.358922 190.654578 
L 373.358922 157.420253 
L 377.447458 157.420253 
L 377.447458 164.070224 
L 378.336271 164.070224 
L 378.336271 214.623484 
L 379.580608 214.623484 
L 379.580608 217.40558 
L 380.46942 217.40558 
L 380.46942 213.549476 
L 385.269006 213.549476 
L 385.269006 228.924549 
L 385.269006 213.549476 
L 385.624531 213.549476 
L 385.624531 242.62687 
L 392.912792 242.62687 
L 392.912792 250.739711 
L 398.067903 250.739711 
L 398.067903 247.096734 
L 402.511964 247.096734 
L 402.511964 254.937034 
L 410.15575 254.937034 
L 410.15575 257.262127 
L 416.910723 257.262127 
L 416.910723 283.00545 
L 424.732271 283.00545 
L 424.732271 285.847541 
L 432.020532 285.847541 
L 432.020532 297.831239 
L 433.264869 297.831239 
L 433.264869 293.655583 
L 433.264869 302.471288 
L 441.086417 302.471288 
L 441.086417 301.48861 
L 448.907965 301.48861 
L 448.907965 313.734287 
L 452.640976 313.734287 
L 452.640976 326.993775 
L 455.307413 326.993775 
L 455.307413 331.966428 
L 456.907275 331.966428 
L 456.907275 320.422127 
L 457.796087 320.422127 
L 457.796087 333.078009 
L 463.484486 333.078009 
L 463.484486 326.995252 
L 471.306034 326.995252 
L 471.306034 321.534558 
L 475.216808 321.534558 
L 475.216808 313.177036 
L 476.283383 313.177036 
L 476.283383 306.082572 
L 478.594294 306.082572 
L 478.594294 313.294666 
L 484.81598 313.294666 
L 484.81598 299.032097 
L 491.393191 299.032097 
L 491.393191 307.545117 
L 497.437114 307.545117 
L 497.437114 313.748189 
L 505.258662 313.748189 
L 505.258662 297.358292 
L 513.257973 297.358292 
L 513.257973 297.960477 
L 520.190709 297.960477 
L 520.190709 272.891358 
L 526.590157 272.891358 
L 526.590157 295.63196 
L 529.789881 295.63196 
L 529.789881 268.37168 
L 535.300517 268.37168 
L 535.300517 267.039979 
L 543.122065 267.039979 
L 543.122065 265.891966 
L 545.610739 265.891966 
L 545.610739 265.891966 
L 545.610739 278.293858 
L 546.144027 278.293858 
L 546.144027 249.12088 
L 547.566126 249.12088 
L 547.566126 247.426697 
L 547.566126 251.615607 
L 548.988226 251.615607 
L 548.988226 252.344211 
L 553.965575 252.344211 
L 553.965575 273.679835 
L 561.431598 273.679835 
L 561.431598 256.756609 
L 567.297759 256.756609 
L 567.297759 284.587102 
L 574.941544 284.587102 
L 574.941544 271.241151 
L 581.87428 271.241151 
L 581.87428 286.814672 
L 589.87359 286.814672 
L 589.87359 295.579562 
L 591.117927 295.579562 
L 591.117927 314.151194 
L 598.583951 314.151194 
L 598.583951 310.335348 
L 599.295 310.335348 
L 599.295 321.795955 
L 607.294311 321.795955 
L 607.294311 249.206842 
L 608.538648 249.206842 
L 608.538648 257.414499 
L 615.471384 257.414499 
L 615.471384 265.413716 
L 622.937407 265.413716 
L 622.937407 236.364205 
L 627.914755 236.364205 
L 627.914755 246.640436 
L 635.380778 246.640436 
L 635.380778 275.619031 
L 643.202326 275.619031 
L 643.202326 305.364877 
L 650.668349 305.364877 
L 650.668349 316.733634 
L 652.445974 316.733634 
L 652.445974 327.48101 
L 658.312135 327.48101 
L 658.312135 239.08973 
L 659.734235 239.08973 
L 659.734235 247.384884 
L 663.467246 247.384884 
L 663.467246 240.105275 
L 670.577744 240.105275 
L 670.577744 254.122856 
L 677.866005 254.122856 
L 677.866005 248.652596 
L 678.932579 248.652596 
L 678.932579 236.866501 
L 678.932579 248.652596 
L 684.265453 248.652596 
L 684.265453 207.973815 
L 685.332028 207.973815 
L 685.332028 234.414111 
L 686.576365 234.414111 
L 686.576365 276.527218 
L 687.465177 276.527218 
L 687.465177 283.941598 
L 688.887277 283.941598 
L 688.887277 360.503796 
L 688.887277 283.941598 
L 690.487139 283.941598 
L 690.487139 360.503796 
L 697.7754 360.503796 
L 697.7754 363.0236 
L 705.241423 363.0236 
L 705.241423 358.49374 
L 705.241423 358.49374 
L 705.596947 358.49374 
L 705.596947 382.998823 
L 705.596947 382.998823 
" clip-path="url(#auto-2026-week-4-gb-at-tb-win-probability-p68642c0206)" style="fill: none; stroke: #1f2e3d; stroke-width: 2"/>
   </g>
   <g id="auto-2026-week-4-gb-at-tb-win-probability-patch_3">
    <path d="M 65.652115 382.998823 
L 65.652115 7.558834 
" style="fill: none; stroke: #c3c9d0; stroke-linejoin: miter; stroke-linecap: square"/>
   </g>
   <g id="auto-2026-week-4-gb-at-tb-win-probability-patch_4">
    <path d="M 65.652115 382.998823 
L 705.596947 382.998823 
" style="fill: none; stroke: #c3c9d0; stroke-linejoin: miter; stroke-linecap: square"/>
   </g>
   <g id="auto-2026-week-4-gb-at-tb-win-probability-logo-TB-1">
    <image xlink:href="logo:TB" id="auto-2026-week-4-gb-at-tb-win-probability-image42659d151f" x="70" y="30" width="30" height="30"/>
   </g>
   <g id="auto-2026-week-4-gb-at-tb-win-probability-logo-GB-2">
    <image xlink:href="logo:GB" id="auto-2026-week-4-gb-at-tb-win-probability-image7ecc948e29" x="70" y="330" width="30" height="30"/>
   </g>
  </g>
 </g>
 <defs>
  <clipPath id="auto-2026-week-4-gb-at-tb-win-probability-p68642c0206">
   <rect x="65.652115" y="7.558834" width="639.944832" height="375.439989"/>
  </clipPath>
 </defs>
</svg>
