<svg class="chart-svg chart-auto-2026-week-1-cle-at-jax-win-probability" xmlns:xlink="http://www.w3.org/1999/xlink" viewBox="0 0 720 240" xmlns="http://www.w3.org/2000/svg" version="1.1">
 <defs>
  <style type="text/css">.chart-auto-2026-week-1-cle-at-jax-win-probability *{stroke-linejoin: round; stroke-linecap: butt}</style>
 </defs>
 <g id="auto-2026-week-1-cle-at-jax-win-probability-figure_1">
  <g id="auto-2026-week-1-cle-at-jax-win-probability-patch_1">
   <path d="M 0 240 
L 720 240 
L 720 0 
L 0 0 
z
" style="fill: #ffffff"/>
  </g>
  <g id="auto-2026-week-1-cle-at-jax-win-probability-axes_1">
   <g id="auto-2026-week-1-cle-at-jax-win-probability-patch_2">
    <path d="M 70.76899 217.998822 
L 705.596947 217.998822 
L 705.596947 7.558834 
L 70.76899 7.558834 
z
" style="fill: #ffffff"/>
   </g>
   <g id="auto-2026-week-1-cle-at-jax-win-probability-matplotlib.axis_1">
    <g id="auto-2026-week-1-cle-at-jax-win-probability-xtick_1">
     <g id="auto-2026-week-1-cle-at-jax-win-probability-line2d_1">
      <defs>
       <path id="auto-2026-week-1-cle-at-jax-win-probability-m7afdfe0ee8" d="M 0 0 
L 0 3.5 
" style="stroke: #c3c9d0; stroke-width: 0.8"/>
      </defs>
      <g>
       <use xlink:href="#auto-2026-week-1-cle-at-jax-win-probability-m7afdfe0ee8" x="70.76899" y="217.998822" style="fill: #c3c9d0; stroke: #c3c9d0; stroke-width: 0.8"/>
      </g>
     </g>
     <g id="auto-2026-week-1-cle-at-jax-win-probability-text_1">
      <text style="font-size: 12px; font-family: 'Barlow', system-ui, sans-serif; text-anchor: middle; fill: #5b6570" x="70.76899" y="234.116948" transform="rotate(-0 70.76899 234.116948)">Kickoff</text>
     </g>
    </g>
    <g id="auto-2026-week-1-cle-at-jax-win-probability-xtick_2">
     <g id="auto-2026-week-1-cle-at-jax-win-probability-line2d_2">
      <g>
       <use xlink:href="#auto-2026-week-1-cle-at-jax-win-probability-m7afdfe0ee8" x="229.475979" y="217.998822" style="fill: #c3c9d0; stroke: #c3c9d0; stroke-width: 0.8"/>
      </g>
     </g>
     <g id="auto-2026-week-1-cle-at-jax-win-probability-text_2">
      <text style="font-size: 12px; font-family: 'Barlow', system-ui, sans-serif; text-anchor: middle; fill: #5b6570" x="229.475979" y="234.11601" transform="rotate(-0 229.475979 234.11601)">Q2</text>
     </g>
    </g>
    <g id="auto-2026-week-1-cle-at-jax-win-probability-xtick_3">
     <g id="auto-2026-week-1-cle-at-jax-win-probability-line2d_3">
      <g>
       <use xlink:href="#auto-2026-week-1-cle-at-jax-win-probability-m7afdfe0ee8" x="388.182969" y="217.998822" style="fill: #c3c9d0; stroke: #c3c9d0; stroke-width: 0.8"/>
      </g>
     </g>
     <g id="auto-2026-week-1-cle-at-jax-win-probability-text_3">
      <text style="font-size: 12px; font-family: 'Barlow', system-ui, sans-serif; text-anchor: middle; fill: #5b6570" x="388.182969" y="234.11601" transform="rotate(-0 388.182969 234.11601)">Q3</text>
     </g>
    </g>
    <g id="auto-2026-week-1-cle-at-jax-win-probability-xtick_4">
     <g id="auto-2026-week-1-cle-at-jax-win-probability-line2d_4">
      <g>
       <use xlink:href="#auto-2026-week-1-cle-at-jax-win-probability-m7afdfe0ee8" x="546.889958" y="217.998822" style="fill: #c3c9d0; stroke: #c3c9d0; stroke-width: 0.8"/>
      </g>
     </g>
     <g id="auto-2026-week-1-cle-at-jax-win-probability-text_4">
      <text style="font-size: 12px; font-family: 'Barlow', system-ui, sans-serif; text-anchor: middle; fill: #5b6570" x="546.889958" y="234.11601" transform="rotate(-0 546.889958 234.11601)">Q4</text>
     </g>
    </g>
    <g id="auto-2026-week-1-cle-at-jax-win-probability-xtick_5">
     <g id="auto-2026-week-1-cle-at-jax-win-probability-line2d_5">
      <g>
       <use xlink:href="#auto-2026-week-1-cle-at-jax-win-probability-m7afdfe0ee8" x="705.596947" y="217.998822" style="fill: #c3c9d0; stroke: #c3c9d0; stroke-width: 0.8"/>
      </g>
     </g>
     <g id="auto-2026-week-1-cle-at-jax-win-probability-text_5">
      <text style="font-size: 12px; font-family: 'Barlow', system-ui, sans-serif; text-anchor: middle; fill: #5b6570" x="705.596947" y="234.116948" transform="rotate(-0 705.596947 234.116948)">End</text>
     </g>
    </g>
   </g>
   <g id="auto-2026-week-1-cle-at-jax-win-probability-matplotlib.axis_2">
    <g id="auto-2026-week-1-cle-at-jax-win-probability-ytick_1">
     <g id="auto-2026-week-1-cle-at-jax-win-probability-line2d_6">
      <path d="M 70.76899 217.998822 
L 705.596947 217.998822 
" clip-path="url(#auto-2026-week-1-cle-at-jax-win-probability-pda04ef0ffd)" style="fill: none; stroke-dasharray: 1,2; stroke-dashoffset: 0; stroke: #d9dde2"/>
     </g>
     <g id="auto-2026-week-1-cle-at-jax-win-probability-line2d_7">
      <defs>
       <path id="auto-2026-week-1-cle-at-jax-win-probability-m33dc6560e7" d="M 0 0 
L -3.5 0 
" style="stroke: #c3c9d0; stroke-width: 0.8"/>
      </defs>
      <g>
       <use xlink:href="#auto-2026-week-1-cle-at-jax-win-probability-m33dc6560e7" x="70.76899" y="217.998822" style="fill: #c3c9d0; stroke: #c3c9d0; stroke-width: 0.8"/>
      </g>
     </g>
     <g id="auto-2026-week-1-cle-at-jax-win-probability-text_6">
      <text style="font-size: 12px; font-family: 'Barlow', system-ui, sans-serif; text-anchor: end; fill: #5b6570" x="63.76899" y="222.557416" transform="rotate(-0 63.76899 222.557416)">CLE 100%</text>
     </g>
    </g>
    <g id="auto-2026-week-1-cle-at-jax-win-probability-ytick_2">
     <g id="auto-2026-week-1-cle-at-jax-win-probability-line2d_8">
      <path d="M 70.76899 165.388825 
L 705.596947 165.388825 
" clip-path="url(#auto-2026-week-1-cle-at-jax-win-probability-pda04ef0ffd)" style="fill: none; stroke-dasharray: 1,2; stroke-dashoffset: 0; stroke: #d9dde2"/>
     </g>
     <g id="auto-2026-week-1-cle-at-jax-win-probability-line2d_9">
      <g>
       <use xlink:href="#auto-2026-week-1-cle-at-jax-win-probability-m33dc6560e7" x="70.76899" y="165.388825" style="fill: #c3c9d0; stroke: #c3c9d0; stroke-width: 0.8"/>
      </g>
     </g>
     <g id="auto-2026-week-1-cle-at-jax-win-probability-text_7">
      <text style="font-size: 12px; font-family: 'Barlow', system-ui, sans-serif; text-anchor: end; fill: #5b6570" x="63.76899" y="169.947419" transform="rotate(-0 63.76899 169.947419)">CLE 75%</text>
     </g>
    </g>
    <g id="auto-2026-week-1-cle-at-jax-win-probability-ytick_3">
     <g id="auto-2026-week-1-cle-at-jax-win-probability-line2d_10">
      <path d="M 70.76899 112.778828 
L 705.596947 112.778828 
" clip-path="url(#auto-2026-week-1-cle-at-jax-win-probability-pda04ef0ffd)" style="fill: none; stroke-dasharray: 1,2; stroke-dashoffset: 0; stroke: #d9dde2"/>
     </g>
     <g id="auto-2026-week-1-cle-at-jax-win-probability-line2d_11">
      <g>
       <use xlink:href="#auto-2026-week-1-cle-at-jax-win-probability-m33dc6560e7" x="70.76899" y="112.778828" style="fill: #c3c9d0; stroke: #c3c9d0; stroke-width: 0.8"/>
      </g>
     </g>
     <g id="auto-2026-week-1-cle-at-jax-win-probability-text_8">
      <text style="font-size: 12px; font-family: 'Barlow', system-ui, sans-serif; text-anchor: end; fill: #5b6570" x="63.76899" y="117.337422" transform="rotate(-0 63.76899 117.337422)">50%</text>
     </g>
    </g>
    <g id="auto-2026-week-1-cle-at-jax-win-probability-ytick_4">
     <g id="auto-2026-week-1-cle-at-jax-win-probability-line2d_12">
      <path d="M 70.76899 60.168831 
L 705.596947 60.168831 
" clip-path="url(#auto-2026-week-1-cle-at-jax-win-probability-pda04ef0ffd)" style="fill: none; stroke-dasharray: 1,2; stroke-dashoffset: 0; stroke: #d9dde2"/>
     </g>
     <g id="auto-2026-week-1-cle-at-jax-win-probability-line2d_13">
      <g>
       <use xlink:href="#auto-2026-week-1-cle-at-jax-win-probability-m33dc6560e7" x="70.76899" y="60.168831" style="fill: #c3c9d0; stroke: #c3c9d0; stroke-width: 0.8"/>
      </g>
     </g>
     <g id="auto-2026-week-1-cle-at-jax-win-probability-text_9">
      <text style="font-size: 12px; font-family: 'Barlow', system-ui, sans-serif; text-anchor: end; fill: #5b6570" x="63.76899" y="64.727425" transform="rotate(-0 63.76899 64.727425)">JAX 75%</text>
     </g>
    </g>
    <g id="auto-2026-week-1-cle-at-jax-win-probability-ytick_5">
     <g id="auto-2026-week-1-cle-at-jax-win-probability-line2d_14">
      <path d="M 70.76899 7.558834 
L 705.596947 7.558834 
" clip-path="url(#auto-2026-week-1-cle-at-jax-win-probability-pda04ef0ffd)" style="fill: none; stroke-dasharray: 1,2; stroke-dashoffset: 0; stroke: #d9dde2"/>
     </g>
     <g id="auto-2026-week-1-cle-at-jax-win-probability-line2d_15">
      <g>
       <use xlink:href="#auto-2026-week-1-cle-at-jax-win-probability-m33dc6560e7" x="70.76899" y="7.558834" style="fill: #c3c9d0; stroke: #c3c9d0; stroke-width: 0.8"/>
      </g>
     </g>
     <g id="auto-2026-week-1-cle-at-jax-win-probability-text_10">
      <text style="font-size: 12px; font-family: 'Barlow', system-ui, sans-serif; text-anchor: end; fill: #5b6570" x="63.76899" y="12.117427" transform="rotate(-0 63.76899 12.117427)">JAX 100%</text>
     </g>
    </g>
   </g>
   <g id="auto-2026-week-1-cle-at-jax-win-probability-line2d_16">
    <path d="M 70.76899 112.778828 
L 705.596947 112.778828 
" clip-path="url(#auto-2026-week-1-cle-at-jax-win-probability-pda04ef0ffd)" style="fill: none; stroke: #c3c9d0"/>
   </g>
   <g id="auto-2026-week-1-cle-at-jax-win-probability-line2d_17">
    <path d="M 70.76899 98.723112 
L 70.76899 103.287858 
L 72.179719 103.287858 
L 72.179719 108.594837 
L 78.527998 108.594837 
L 78.527998 105.364467 
L 85.405301 105.364467 
L 85.405301 119.178683 
L 92.458945 119.178683 
L 92.458945 119.794027 
L 99.512589 119.794027 
L 99.512589 83.223548 
L 101.452341 83.223548 
L 101.452341 83.876396 
L 107.447939 83.876396 
L 107.447939 84.501248 
L 112.032807 84.501248 
L 112.032807 80.880239 
L 118.91011 80.880239 
L 118.91011 82.186212 
L 126.140095 82.186212 
L 126.140095 70.934836 
L 133.37008 70.934836 
L 133.37008 72.595367 
L 140.776406 72.595367 
L 140.776406 78.552472 
L 141.658112 78.552472 
L 141.658112 59.335006 
L 142.8925 59.335006 
L 142.8925 56.855541 
L 143.950546 56.855541 
L 143.950546 57.014282 
L 150.475167 57.014282 
L 150.475167 55.679663 
L 157.705152 55.679663 
L 157.705152 48.57881 
L 158.93954 48.57881 
L 158.93954 49.412773 
L 161.760997 49.412773 
L 161.760997 51.555277 
L 162.995385 51.555277 
L 162.995385 44.043831 
L 168.814641 44.043831 
L 168.814641 44.985989 
L 174.633897 44.985989 
L 174.633897 43.138476 
L 177.455355 43.138476 
L 177.455355 41.002958 
L 183.09827 41.002958 
L 183.09827 42.92415 
L 186.625092 42.92415 
L 186.625092 45.252055 
L 188.035821 45.252055 
L 188.035821 38.411596 
L 195.265806 38.411596 
L 195.265806 34.777504 
L 203.377497 34.777504 
L 203.377497 35.953931 
L 210.607482 35.953931 
L 210.607482 35.177562 
L 211.489187 35.177562 
L 211.489187 35.146694 
L 211.489187 36.068773 
L 211.489187 32.372294 
L 217.308444 32.372294 
L 217.308444 31.050853 
L 222.775018 31.050853 
L 222.775018 27.067998 
L 229.475979 27.067998 
L 229.475979 27.067998 
L 229.475979 27.959898 
L 230.886708 27.959898 
L 230.886708 25.674527 
L 237.764011 25.674527 
L 237.764011 26.782393 
L 238.822058 26.782393 
L 238.822058 25.244383 
L 245.346678 25.244383 
L 245.346678 25.563444 
L 252.223981 25.563444 
L 252.223981 24.685634 
L 259.806648 24.685634 
L 259.806648 24.18289 
L 267.565657 24.18289 
L 267.565657 23.690168 
L 274.619301 23.690168 
L 274.619301 24.644153 
L 275.501006 24.644153 
L 275.501006 25.668318 
L 282.730991 25.668318 
L 282.730991 28.712666 
L 290.666341 28.712666 
L 290.666341 26.727038 
L 291.371705 26.727038 
L 291.371705 27.195489 
L 293.135116 27.195489 
L 293.135116 26.238918 
L 296.838279 26.238918 
L 296.838279 18.363848 
L 298.778031 18.363848 
L 298.778031 17.908103 
L 306.184358 17.908103 
L 306.184358 18.259024 
L 313.414343 18.259024 
L 313.414343 19.53103 
L 314.472389 19.53103 
L 314.472389 15.454101 
L 320.467987 15.454101 
L 320.467987 12.282455 
L 322.760421 12.249889 
L 322.760421 12.646307 
L 328.579677 12.646307 
L 328.579677 13.304253 
L 335.45698 13.304253 
L 335.45698 12.35643 
L 336.691368 12.35643 
L 336.691368 11.36414 
L 336.691368 12.35643 
L 337.573073 12.35643 
L 337.573073 11.287313 
L 345.508423 11.287313 
L 345.508423 8.418056 
L 346.919152 8.418056 
L 346.919152 9.726324 
L 353.267431 9.726324 
L 353.267431 9.945792 
L 360.850098 9.945792 
L 360.850098 10.353446 
L 367.022037 10.353446 
L 367.022037 11.156713 
L 369.667153 11.156713 
L 369.667153 11.507288 
L 369.667153 11.156713 
L 371.959588 11.156713 
L 371.959588 11.788285 
L 379.189573 11.887054 
L 379.189573 11.477693 
L 380.42396 11.477693 
L 380.42396 11.477693 
L 380.42396 11.102239 
L 382.716395 11.02037 
L 382.716395 10.415552 
L 386.77224 10.415552 
L 386.77224 8.183585 
L 397.881729 8.164357 
L 397.881729 7.97942 
L 418.513638 8.017106 
L 418.513638 8.017106 
L 418.513638 8.243085 
L 420.100708 8.243085 
L 420.100708 8.090456 
L 434.031655 8.193373 
L 434.031655 7.976488 
L 439.67457 7.976488 
L 439.67457 8.127883 
L 447.080896 8.127883 
L 447.080896 8.007465 
L 456.250633 7.950586 
L 456.250633 7.739029 
L 538.072903 7.646437 
L 538.072903 7.616831 
L 538.072903 7.646437 
L 705.596947 7.573685 
L 705.596947 7.558834 
" clip-path="url(#auto-2026-week-1-cle-at-jax-win-probability-pda04ef0ffd)" style="fill: none; stroke: #1f2e3d; stroke-width: 2"/>
   </g>
   <g id="auto-2026-week-1-cle-at-jax-win-probability-patch_3">
    <path d="M 70.76899 217.998822 
L 70.76899 7.558834 
" style="fill: none; stroke: #c3c9d0; stroke-linejoin: miter; stroke-linecap: square"/>
   </g>
   <g id="auto-2026-week-1-cle-at-jax-win-probability-patch_4">
    <path d="M 70.76899 217.998822 
L 705.596947 217.998822 
" style="fill: none; stroke: #c3c9d0; stroke-linejoin: miter; stroke-linecap: square"/>
   </g>
   <g id="auto-2026-week-1-cle-at-jax-win-probability-logo-JAX-1">
    <image xlink:href="logo:JAX" id="auto-2026-week-1-cle-at-jax-win-probability-imagee5527b6770" x="75" y="14" width="30" height="30"/>
   </g>
   <g id="auto-2026-week-1-cle-at-jax-win-probability-logo-CLE-2">
    <image xlink:href="logo:CLE" id="auto-2026-week-1-cle-at-jax-win-probability-imagefed5bcb309" x="75" y="182" width="30" height="30"/>
   </g>
  </g>
 </g>
 <defs>
  <clipPath id="auto-2026-week-1-cle-at-jax-win-probability-pda04ef0ffd">
   <rect x="70.76899" y="7.558834" width="634.827957" height="210.439989"/>
  </clipPath>
 </defs>
</svg>
